<?xml version="1.0" encoding="UTF-8"?>
<!DOCTYPE svg PUBLIC "-//W3C//DTD SVG 1.1//EN" "http://www.w3.org/Graphics/SVG/1.1/DTD/svg11.dtd">
<svg xmlns="http://www.w3.org/2000/svg" version="1.1" width="522px" height="478px" style="shape-rendering:geometricPrecision; text-rendering:geometricPrecision; image-rendering:optimizeQuality; fill-rule:evenodd; clip-rule:evenodd" xmlns:xlink="http://www.w3.org/1999/xlink">
<g><path style="opacity:0.006" fill="#000000" d="M 270.5,75.5 C 270.897,74.475 271.563,74.3083 272.5,75C 271.906,75.4643 271.239,75.631 270.5,75.5 Z"/></g>
<g><path style="opacity:0.004" fill="#000000" d="M 277.5,75.5 C 278.833,76.1667 278.833,76.1667 277.5,75.5 Z"/></g>
<g><path style="opacity:0.762" fill="#252525" d="M 272.5,76.5 C 293.097,78.8355 309.763,86.5022 322.5,99.5C 321.584,99.9817 320.584,100.315 319.5,100.5C 317.199,97.3682 314.365,94.7015 311,92.5C 309.251,93.299 307.918,92.6324 307,90.5C 305.984,91.6341 305.317,91.3008 305,89.5C 304.667,89.8333 304.333,90.1667 304,90.5C 302.401,88.1193 300.235,86.9526 297.5,87C 298.5,87.8333 299.5,88.6667 300.5,89.5C 298.887,90.4274 297.221,91.2607 295.5,92C 296.646,92.6449 297.646,93.4783 298.5,94.5C 298.911,93.7376 299.077,92.7376 299,91.5C 300.74,93.1844 301.906,95.0177 302.5,97C 305.593,98.6963 308.593,100.53 311.5,102.5C 312.429,103.689 312.762,105.022 312.5,106.5C 305.265,101.052 297.598,96.3858 289.5,92.5C 290.552,92.6495 291.552,92.4828 292.5,92C 289.309,88.5706 289.809,87.4039 294,88.5C 294.465,87.0692 295.299,85.9025 296.5,85C 287.112,81.305 277.779,79.305 268.5,79C 269.858,78.0656 271.192,77.2323 272.5,76.5 Z"/></g>
<g><path style="opacity:1" fill="#0d0d0d" d="M 254.5,74.5 C 254.5,74.8333 254.5,75.1667 254.5,75.5C 255.263,76.2679 256.263,76.7679 257.5,77C 255.5,77.3333 253.5,77.6667 251.5,78C 256.238,78.1116 260.904,78.2783 265.5,78.5C 264.353,80.5846 265.02,82.0846 267.5,83C 267.167,83.3333 266.833,83.6667 266.5,84C 268.76,84.5494 270.426,85.716 271.5,87.5C 265.125,86.602 258.792,86.602 252.5,87.5C 246.934,85.7561 241.267,85.5895 235.5,87C 228.378,88.6487 221.712,91.3154 215.5,95C 214.748,95.6708 214.414,96.5041 214.5,97.5C 214.158,98.3382 213.492,98.6716 212.5,98.5C 211.389,97.3403 210.389,96.007 209.5,94.5C 208.614,95.325 208.281,96.325 208.5,97.5C 206.046,97.3205 203.879,97.9872 202,99.5C 197.747,98.5866 197.414,96.9199 201,94.5C 201.333,94.8333 201.667,95.1667 202,95.5C 204.797,93.758 207.464,91.758 210,89.5C 211.087,91.9316 211.587,91.5983 211.5,88.5C 215.72,88.5729 218.054,86.5729 218.5,82.5C 229.331,78.2972 240.664,75.9639 252.5,75.5C 253.167,75.1667 253.833,74.8333 254.5,74.5 Z"/></g>
<g><path style="opacity:1" fill="#0f0f0f" d="M 272.5,76.5 C 271.192,77.2323 269.858,78.0656 268.5,79C 277.779,79.305 287.112,81.305 296.5,85C 295.299,85.9025 294.465,87.0692 294,88.5C 289.809,87.4039 289.309,88.5706 292.5,92C 291.552,92.4828 290.552,92.6495 289.5,92.5C 287.898,90.9261 285.898,90.2594 283.5,90.5C 279.4,89.8084 275.4,88.8084 271.5,87.5C 270.426,85.716 268.76,84.5494 266.5,84C 266.833,83.6667 267.167,83.3333 267.5,83C 265.02,82.0846 264.353,80.5846 265.5,78.5C 260.904,78.2783 256.238,78.1116 251.5,78C 253.5,77.6667 255.5,77.3333 257.5,77C 256.263,76.7679 255.263,76.2679 254.5,75.5C 262.5,75.1667 262.5,74.8333 254.5,74.5C 253.833,74.8333 253.167,75.1667 252.5,75.5C 251.048,74.6981 249.382,74.1981 247.5,74C 253.167,73.3333 258.833,73.3333 264.5,74C 263.833,74.3333 263.167,74.6667 262.5,75C 265.793,75.8256 269.126,76.3256 272.5,76.5 Z"/></g>
<g><path style="opacity:0.821" fill="#202020" d="M 252.5,87.5 C 239.018,87.7723 226.352,91.1056 214.5,97.5C 214.414,96.5041 214.748,95.6708 215.5,95C 221.712,91.3154 228.378,88.6487 235.5,87C 241.267,85.5895 246.934,85.7561 252.5,87.5 Z"/></g>
<g><path style="opacity:0.298" fill="#5e5e5e" d="M 283.5,90.5 C 285.898,90.2594 287.898,90.9261 289.5,92.5C 287.214,92.405 285.214,91.7384 283.5,90.5 Z"/></g>
<g><path style="opacity:0.999" fill="#181818" d="M 218.5,82.5 C 218.054,86.5729 215.72,88.5729 211.5,88.5C 211.587,91.5983 211.087,91.9316 210,89.5C 207.464,91.758 204.797,93.758 202,95.5C 201.667,95.1667 201.333,94.8333 201,94.5C 197.414,96.9199 197.747,98.5866 202,99.5C 203.879,97.9872 206.046,97.3205 208.5,97.5C 208.281,96.325 208.614,95.325 209.5,94.5C 210.389,96.007 211.389,97.3403 212.5,98.5C 210.14,100.853 207.473,102.853 204.5,104.5C 203.849,103.909 203.182,103.243 202.5,102.5C 199.599,106.34 196.265,109.673 192.5,112.5C 191.603,111.402 190.77,111.402 190,112.5C 187.976,110.208 188.31,109.541 191,110.5C 192.487,109.747 192.654,108.914 191.5,108C 194.279,107.851 194.779,107.017 193,105.5C 191.686,106.313 190.519,107.313 189.5,108.5C 188.549,107.674 187.549,107.508 186.5,108C 187.451,108.718 187.617,109.551 187,110.5C 185.883,110.665 184.716,110.998 183.5,111.5C 182.937,113.709 181.604,115.209 179.5,116C 183.5,116.667 183.5,117.333 179.5,118C 178.052,121.179 176.052,123.846 173.5,126C 174.308,126.308 174.975,126.808 175.5,127.5C 173.69,127.423 172.356,128.59 171.5,131C 171.833,131.333 172.167,131.667 172.5,132C 168.947,137.515 166.947,143.682 166.5,150.5C 165.857,152.076 164.857,153.41 163.5,154.5C 163.5,153.167 163.5,151.833 163.5,150.5C 166.896,130.972 176.563,113.805 192.5,99C 200.073,91.7172 208.739,86.2172 218.5,82.5 Z"/></g>
<g><path style="opacity:0.998" fill="#101010" d="M 322.5,99.5 C 329.769,106.046 336.102,113.38 341.5,121.5C 337.995,121.694 337.662,122.694 340.5,124.5C 338.7,125.605 337.533,124.939 337,122.5C 335.387,123.622 334.22,123.122 333.5,121C 334.902,119.658 334.569,118.824 332.5,118.5C 330.84,119.172 329.507,120.172 328.5,121.5C 328.167,121.5 327.833,121.5 327.5,121.5C 322.833,116.167 317.833,111.167 312.5,106.5C 312.762,105.022 312.429,103.689 311.5,102.5C 308.593,100.53 305.593,98.6963 302.5,97C 301.906,95.0177 300.74,93.1844 299,91.5C 299.077,92.7376 298.911,93.7376 298.5,94.5C 297.646,93.4783 296.646,92.6449 295.5,92C 297.221,91.2607 298.887,90.4274 300.5,89.5C 299.5,88.6667 298.5,87.8333 297.5,87C 300.235,86.9526 302.401,88.1193 304,90.5C 304.333,90.1667 304.667,89.8333 305,89.5C 305.317,91.3008 305.984,91.6341 307,90.5C 307.918,92.6324 309.251,93.299 311,92.5C 314.365,94.7015 317.199,97.3682 319.5,100.5C 320.584,100.315 321.584,99.9817 322.5,99.5 Z"/></g>
<g><path style="opacity:0.752" fill="#2f2f2f" d="M 341.5,121.5 C 345.818,127.138 348.818,133.471 350.5,140.5C 348.821,140.715 347.821,140.048 347.5,138.5C 346.554,136.868 345.554,135.201 344.5,133.5C 344.709,132.914 345.043,132.414 345.5,132C 343.827,129.49 342.16,126.99 340.5,124.5C 337.662,122.694 337.995,121.694 341.5,121.5 Z"/></g>
<g><path style="opacity:1" fill="#090909" d="M 340.5,124.5 C 342.16,126.99 343.827,129.49 345.5,132C 345.043,132.414 344.709,132.914 344.5,133.5C 345.554,135.201 346.554,136.868 347.5,138.5C 344.315,138.722 343.315,140.222 344.5,143C 343.692,143.308 343.025,143.808 342.5,144.5C 343.406,148.892 344.073,153.559 344.5,158.5C 331.176,158.231 318.176,158.231 305.5,158.5C 302.486,157.821 299.82,156.321 297.5,154C 298.094,153.536 298.761,153.369 299.5,153.5C 301.612,154.594 303.779,155.594 306,156.5C 316.742,156.35 327.742,156.35 339,156.5C 343.726,155.275 343.559,154.442 338.5,154C 339.448,153.517 340.448,153.351 341.5,153.5C 342.794,151.32 342.461,149.32 340.5,147.5C 339.499,140.13 337.499,133.13 334.5,126.5C 333.448,126.649 332.448,126.483 331.5,126C 331.833,125.667 332.167,125.333 332.5,125C 331.468,123.373 330.134,122.207 328.5,121.5C 329.507,120.172 330.84,119.172 332.5,118.5C 334.569,118.824 334.902,119.658 333.5,121C 334.22,123.122 335.387,123.622 337,122.5C 337.533,124.939 338.7,125.605 340.5,124.5 Z"/></g>
<g><path style="opacity:0.71" fill="#313131" d="M 327.5,121.5 C 327.833,121.5 328.167,121.5 328.5,121.5C 330.134,122.207 331.468,123.373 332.5,125C 332.167,125.333 331.833,125.667 331.5,126C 332.448,126.483 333.448,126.649 334.5,126.5C 337.499,133.13 339.499,140.13 340.5,147.5C 337.088,138.407 332.754,129.741 327.5,121.5 Z"/></g>
<g><path style="opacity:0.027" fill="#757575" d="M 229.5,125.5 C 230.239,125.369 230.906,125.536 231.5,126C 229.593,127.122 227.593,127.955 225.5,128.5C 226.035,126.554 227.368,125.554 229.5,125.5 Z"/></g>
<g><path style="opacity:1" fill="#181818" d="M 229.5,125.5 C 237.039,124.261 243.039,126.928 247.5,133.5C 258.326,134.33 269.326,134.83 280.5,135C 282.747,136.277 284.747,137.777 286.5,139.5C 285.883,139.611 285.383,139.944 285,140.5C 283.411,138.974 281.577,137.807 279.5,137C 268.3,136.801 257.133,136.301 246,135.5C 245.055,135.905 244.388,136.572 244,137.5C 243.5,136.333 242.667,135.5 241.5,135C 242.956,134.577 243.456,133.744 243,132.5C 240.968,130.696 238.801,130.196 236.5,131C 237.167,132.333 238.167,133.333 239.5,134C 238.5,134.333 237.5,134.667 236.5,135C 237.171,135.986 237.171,137.153 236.5,138.5C 236.565,138.938 236.399,139.272 236,139.5C 234.399,135.964 232.566,136.131 230.5,140C 234.33,140.276 234.996,141.442 232.5,143.5C 231.312,142.316 230.145,142.316 229,143.5C 228.383,142.551 228.549,141.718 229.5,141C 228.833,140.667 228.167,140.333 227.5,140C 228.5,137.667 230.167,136 232.5,135C 230.863,132.69 228.696,131.19 226,130.5C 224.112,132.793 222.612,135.96 221.5,140C 222.167,140.333 222.833,140.667 223.5,141C 221.808,142.401 221.141,144.234 221.5,146.5C 218.233,145.969 217.9,144.969 220.5,143.5C 220.5,141.5 220.5,139.5 220.5,137.5C 220.355,133.453 222.022,130.453 225.5,128.5C 227.593,127.955 229.593,127.122 231.5,126C 230.906,125.536 230.239,125.369 229.5,125.5 Z"/></g>
<g><path style="opacity:0.008" fill="#a8a8a8" d="M 247.5,133.5 C 247.369,132.761 247.536,132.094 248,131.5C 248.692,132.437 248.525,133.103 247.5,133.5 Z"/></g>
<g><path style="opacity:0.004" fill="#000000" d="M 272.5,132.5 C 273.833,133.167 273.833,133.167 272.5,132.5 Z"/></g>
<g><path style="opacity:1" fill="#0c0c0c" d="M 192.5,112.5 C 188.097,118.297 183.93,124.297 180,130.5C 177.181,137.798 174.681,145.131 172.5,152.5C 171.504,152.414 170.671,152.748 170,153.5C 169.751,152.376 169.251,151.376 168.5,150.5C 167.571,151.55 166.905,151.55 166.5,150.5C 166.947,143.682 168.947,137.515 172.5,132C 172.167,131.667 171.833,131.333 171.5,131C 172.356,128.59 173.69,127.423 175.5,127.5C 174.975,126.808 174.308,126.308 173.5,126C 176.052,123.846 178.052,121.179 179.5,118C 183.5,117.333 183.5,116.667 179.5,116C 181.604,115.209 182.937,113.709 183.5,111.5C 184.716,110.998 185.883,110.665 187,110.5C 187.617,109.551 187.451,108.718 186.5,108C 187.549,107.508 188.549,107.674 189.5,108.5C 190.519,107.313 191.686,106.313 193,105.5C 194.779,107.017 194.279,107.851 191.5,108C 192.654,108.914 192.487,109.747 191,110.5C 188.31,109.541 187.976,110.208 190,112.5C 190.77,111.402 191.603,111.402 192.5,112.5 Z"/></g>
<g><path style="opacity:1" fill="#0c0c0c" d="M 286.5,139.5 C 287.167,139.5 287.5,139.833 287.5,140.5C 286.205,142.372 286.372,144.038 288,145.5C 288.333,145.167 288.667,144.833 289,144.5C 290.773,146.623 291.94,148.623 292.5,150.5C 291.754,151.736 291.421,153.07 291.5,154.5C 289.801,154.66 288.134,154.494 286.5,154C 288.878,153.026 288.544,152.359 285.5,152C 283,148.833 280.167,146 277,143.5C 275.602,144.051 274.268,144.384 273,144.5C 264.815,143.207 256.815,142.54 249,142.5C 246.182,143.433 245.016,145.433 245.5,148.5C 244.833,149.833 243.833,150.833 242.5,151.5C 242.519,149.94 242.852,148.44 243.5,147C 242.37,145.24 241.37,143.407 240.5,141.5C 239.155,142.347 238.155,143.513 237.5,145C 236.167,145.667 234.833,145.667 233.5,145C 234.416,144.722 235.082,144.222 235.5,143.5C 237.597,142.121 237.93,140.455 236.5,138.5C 237.171,137.153 237.171,135.986 236.5,135C 237.5,134.667 238.5,134.333 239.5,134C 238.167,133.333 237.167,132.333 236.5,131C 238.801,130.196 240.968,130.696 243,132.5C 243.456,133.744 242.956,134.577 241.5,135C 242.667,135.5 243.5,136.333 244,137.5C 244.388,136.572 245.055,135.905 246,135.5C 257.133,136.301 268.3,136.801 279.5,137C 281.577,137.807 283.411,138.974 285,140.5C 285.383,139.944 285.883,139.611 286.5,139.5 Z"/></g>
<g><path style="opacity:0.157" fill="#767676" d="M 220.5,137.5 C 220.5,139.5 220.5,141.5 220.5,143.5C 219.691,142.531 218.691,141.698 217.5,141C 218.814,140.015 219.814,138.848 220.5,137.5 Z"/></g>
<g><path style="opacity:0.999" fill="#141414" d="M 232.5,143.5 C 233.5,143.5 234.5,143.5 235.5,143.5C 235.082,144.222 234.416,144.722 233.5,145C 234.833,145.667 236.167,145.667 237.5,145C 238.155,143.513 239.155,142.347 240.5,141.5C 241.37,143.407 242.37,145.24 243.5,147C 242.852,148.44 242.519,149.94 242.5,151.5C 236.872,156.286 230.872,156.453 224.5,152C 222.84,150.512 221.84,148.679 221.5,146.5C 221.141,144.234 221.808,142.401 223.5,141C 222.833,140.667 222.167,140.333 221.5,140C 222.612,135.96 224.112,132.793 226,130.5C 228.696,131.19 230.863,132.69 232.5,135C 230.167,136 228.5,137.667 227.5,140C 228.167,140.333 228.833,140.667 229.5,141C 228.549,141.718 228.383,142.551 229,143.5C 230.145,142.316 231.312,142.316 232.5,143.5 Z"/></g>
<g><path style="opacity:0.008" fill="#8b8b8b" d="M 340.5,147.5 C 342.461,149.32 342.794,151.32 341.5,153.5C 341.082,152.778 340.416,152.278 339.5,152C 340.167,151.667 340.833,151.333 341.5,151C 338.046,150.372 337.713,149.205 340.5,147.5 Z"/></g>
<g><path style="opacity:0.024" fill="#989898" d="M 163.5,150.5 C 163.5,151.833 163.5,153.167 163.5,154.5C 163.167,154.5 162.833,154.5 162.5,154.5C 161.147,152.872 161.481,151.538 163.5,150.5 Z"/></g>
<g><path style="opacity:1" fill="#161616" d="M 287.5,140.5 C 291.472,144.807 295.472,149.141 299.5,153.5C 298.761,153.369 298.094,153.536 297.5,154C 299.82,156.321 302.486,157.821 305.5,158.5C 304.308,159.566 304.641,160.399 306.5,161C 304.603,162.11 302.77,162.276 301,161.5C 300.5,162.667 299.667,163.5 298.5,164C 299.056,164.383 299.389,164.883 299.5,165.5C 298.833,165.5 298.167,165.5 297.5,165.5C 289.776,160.615 283.109,154.448 277.5,147C 267.561,145.438 257.561,145.105 247.5,146C 246.934,146.995 246.267,147.828 245.5,148.5C 245.016,145.433 246.182,143.433 249,142.5C 256.815,142.54 264.815,143.207 273,144.5C 274.268,144.384 275.602,144.051 277,143.5C 280.167,146 283,148.833 285.5,152C 288.544,152.359 288.878,153.026 286.5,154C 288.134,154.494 289.801,154.66 291.5,154.5C 291.421,153.07 291.754,151.736 292.5,150.5C 291.94,148.623 290.773,146.623 289,144.5C 288.667,144.833 288.333,145.167 288,145.5C 286.372,144.038 286.205,142.372 287.5,140.5 Z"/></g>
<g><path style="opacity:0.071" fill="#a3a3a3" d="M 353.5,151.5 C 355.481,152.105 355.815,153.105 354.5,154.5C 353.596,153.791 353.263,152.791 353.5,151.5 Z"/></g>
<g><path style="opacity:1" fill="#141414" d="M 347.5,138.5 C 347.821,140.048 348.821,140.715 350.5,140.5C 351.465,143.161 352.798,145.661 354.5,148C 353.663,149.011 353.33,150.178 353.5,151.5C 353.263,152.791 353.596,153.791 354.5,154.5C 354.703,156.044 355.37,157.378 356.5,158.5C 356.571,165.471 356.238,172.471 355.5,179.5C 354.839,178.282 354.172,176.949 353.5,175.5C 352.304,175.846 352.304,176.346 353.5,177C 352.54,182.252 351.207,187.418 349.5,192.5C 349.709,193.086 350.043,193.586 350.5,194C 348.447,194.325 346.447,193.991 344.5,193C 345.448,192.517 346.448,192.351 347.5,192.5C 347.081,188.911 345.914,185.577 344,182.5C 343.722,183.416 343.222,184.082 342.5,184.5C 342.062,184.565 341.728,184.399 341.5,184C 342.126,183.25 342.626,182.416 343,181.5C 343.499,176.845 343.666,172.179 343.5,167.5C 330.496,167.667 317.496,167.5 304.5,167C 302.753,166.648 301.086,166.148 299.5,165.5C 299.389,164.883 299.056,164.383 298.5,164C 299.667,163.5 300.5,162.667 301,161.5C 302.77,162.276 304.603,162.11 306.5,161C 304.641,160.399 304.308,159.566 305.5,158.5C 318.176,158.231 331.176,158.231 344.5,158.5C 344.073,153.559 343.406,148.892 342.5,144.5C 343.025,143.808 343.692,143.308 344.5,143C 343.315,140.222 344.315,138.722 347.5,138.5 Z"/></g>
<g><path style="opacity:1" fill="#141414" d="M 166.5,150.5 C 166.905,151.55 167.571,151.55 168.5,150.5C 169.251,151.376 169.751,152.376 170,153.5C 170.671,152.748 171.504,152.414 172.5,152.5C 171.794,154.306 172.127,156.139 173.5,158C 172.061,158.991 171.061,160.324 170.5,162C 171.141,164.578 171.475,167.245 171.5,170C 171.432,172.95 170.766,175.617 169.5,178C 171.481,178.605 171.815,179.605 170.5,181C 172.767,187.117 175.434,193.117 178.5,199C 177.366,200.016 177.699,200.683 179.5,201C 178.944,201.383 178.611,201.883 178.5,202.5C 177.849,203.091 177.182,203.757 176.5,204.5C 175.304,204.154 175.304,203.654 176.5,203C 175.584,202.626 174.75,202.126 174,201.5C 173.833,201.833 173.667,202.167 173.5,202.5C 175.314,206.411 176.647,210.078 177.5,213.5C 179.144,213.714 180.644,213.38 182,212.5C 182.311,213.742 181.811,214.742 180.5,215.5C 180.863,216.183 181.196,216.85 181.5,217.5C 179.629,217.141 178.129,216.141 177,214.5C 174.167,210.833 171.333,207.167 168.5,203.5C 167.247,199.274 165.581,194.941 163.5,190.5C 164.097,190.265 164.43,189.765 164.5,189C 164.046,186.97 163.38,185.137 162.5,183.5C 161.892,182.2 161.225,180.867 160.5,179.5C 161.833,173.167 161.833,166.833 160.5,160.5C 161.651,158.675 162.318,156.675 162.5,154.5C 162.833,154.5 163.167,154.5 163.5,154.5C 164.857,153.41 165.857,152.076 166.5,150.5 Z"/></g>
<g><path style="opacity:0.697" fill="#212121" d="M 204.5,104.5 C 184.482,121.512 174.315,142.178 174,166.5C 174.763,163.937 175.263,163.937 175.5,166.5C 174.833,167.5 174.167,168.5 173.5,169.5C 173.737,172.063 174.237,172.063 175,169.5C 175.483,170.448 175.649,171.448 175.5,172.5C 173.462,173.856 173.128,175.523 174.5,177.5C 174.502,190.676 179.836,201.509 190.5,210C 194.5,212.667 198.5,215.333 202.5,218C 211.454,220.822 220.454,223.489 229.5,226C 231.093,226.949 232.426,228.115 233.5,229.5C 231.435,229.483 229.435,229.15 227.5,228.5C 224.107,226.466 220.441,224.799 216.5,223.5C 215.558,223.608 214.725,223.941 214,224.5C 210.24,221.919 206.24,220.919 202,221.5C 200.299,219.59 198.133,218.423 195.5,218C 195.833,217.667 196.167,217.333 196.5,217C 195.24,215.887 194.073,215.72 193,216.5C 190.013,213.602 187.18,210.602 184.5,207.5C 181.151,208.83 180.818,208.33 183.5,206C 181.912,204.925 180.245,203.759 178.5,202.5C 178.611,201.883 178.944,201.383 179.5,201C 177.699,200.683 177.366,200.016 178.5,199C 175.434,193.117 172.767,187.117 170.5,181C 171.815,179.605 171.481,178.605 169.5,178C 170.766,175.617 171.432,172.95 171.5,170C 171.475,167.245 171.141,164.578 170.5,162C 171.061,160.324 172.061,158.991 173.5,158C 172.127,156.139 171.794,154.306 172.5,152.5C 174.681,145.131 177.181,137.798 180,130.5C 183.93,124.297 188.097,118.297 192.5,112.5C 196.265,109.673 199.599,106.34 202.5,102.5C 203.182,103.243 203.849,103.909 204.5,104.5 Z"/></g>
<g><path style="opacity:0.004" fill="#fefffe" d="M 297.5,165.5 C 296.833,166.167 296.833,166.167 297.5,165.5 Z"/></g>
<g><path style="opacity:0.071" fill="#a6a6a6" d="M 206.5,165.5 C 205.469,166.249 204.302,166.915 203,167.5C 202.601,167.272 202.435,166.938 202.5,166.5C 203.531,165.751 204.698,165.085 206,164.5C 206.399,164.728 206.565,165.062 206.5,165.5 Z"/></g>
<g><path style="opacity:0.012" fill="#4e4e4e" d="M 197.5,171.5 C 196.475,171.103 196.308,170.437 197,169.5C 197.464,170.094 197.631,170.761 197.5,171.5 Z"/></g>
<g><path style="opacity:1" fill="#191919" d="M 213.5,165.5 C 213.5,166.5 213.5,167.5 213.5,168.5C 216.14,168.954 218.473,170.121 220.5,172C 219.402,172.77 219.402,173.603 220.5,174.5C 219.294,175.88 219.627,177.047 221.5,178C 223.443,177.695 225.443,177.695 227.5,178C 226.167,178.667 226.167,179.333 227.5,180C 225.423,180.192 223.423,180.692 221.5,181.5C 236.155,182.333 250.822,182.833 265.5,183C 268.051,184.309 270.051,186.143 271.5,188.5C 271.5,189.167 271.5,189.833 271.5,190.5C 270.167,189.833 269.167,188.833 268.5,187.5C 268.167,186.5 267.5,185.833 266.5,185.5C 251.818,185.167 237.152,185.501 222.5,186.5C 217.146,194.337 210.146,196.17 201.5,192C 196.26,186.783 194.594,180.617 196.5,173.5C 197.338,173.158 197.672,172.492 197.5,171.5C 198.939,169.64 200.605,167.973 202.5,166.5C 202.435,166.938 202.601,167.272 203,167.5C 204.302,166.915 205.469,166.249 206.5,165.5C 208.833,164.167 211.167,164.167 213.5,165.5 Z M 208.5,177.5 C 209.705,176.314 211.039,176.314 212.5,177.5C 213.11,178.391 213.443,179.391 213.5,180.5C 212.448,180.351 211.448,180.517 210.5,181C 211.566,182.159 211.233,182.992 209.5,183.5C 208.699,181.958 208.366,180.292 208.5,178.5C 209.833,178.167 209.833,177.833 208.5,177.5 Z M 208.5,177.5 C 208.5,177.833 208.5,178.167 208.5,178.5C 207.732,179.263 207.232,180.263 207,181.5C 206.156,179.537 206.656,178.204 208.5,177.5 Z"/></g>
<g><path style="opacity:0.004" fill="#000000" d="M 196.5,173.5 C 195.833,172.167 195.833,172.167 196.5,173.5 Z"/></g>
<g><path style="opacity:0.012" fill="#828282" d="M 175.5,172.5 C 175.851,175.041 175.518,176.708 174.5,177.5C 173.128,175.523 173.462,173.856 175.5,172.5 Z"/></g>
<g><path style="opacity:0.008" fill="#3b3b3b" d="M 195.5,173.5 C 195.649,174.552 195.483,175.552 195,176.5C 194.26,175.251 194.427,174.251 195.5,173.5 Z"/></g>
<g><path style="opacity:0.801" fill="#151515" d="M 213.5,165.5 C 217.626,166.614 220.959,168.947 223.5,172.5C 236.178,173.218 248.512,173.551 260.5,173.5C 262.5,173.333 264.5,173.167 266.5,173C 268.131,171.164 268.798,171.664 268.5,174.5C 272.098,175.303 275.431,176.637 278.5,178.5C 278.351,179.552 278.517,180.552 279,181.5C 280.617,183.763 282.45,185.763 284.5,187.5C 284.833,188.5 285.5,189.167 286.5,189.5C 304.993,190.497 323.659,190.83 342.5,190.5C 341.391,191.29 340.058,191.79 338.5,192C 340.167,192.333 341.833,192.667 343.5,193C 329.98,193.339 316.48,192.839 303,191.5C 297.833,191.667 292.667,191.833 287.5,192C 288.167,192.333 288.833,192.667 289.5,193C 287.939,193.318 286.772,194.151 286,195.5C 284.148,193.77 284.314,192.604 286.5,192C 284.866,191.506 283.199,191.34 281.5,191.5C 282.203,189.966 282.036,188.299 281,186.5C 280.667,186.833 280.333,187.167 280,187.5C 278.956,186.377 278.29,185.044 278,183.5C 277.667,183.833 277.333,184.167 277,184.5C 276.667,183.5 276.333,182.5 276,181.5C 274.527,181.868 273.027,181.368 271.5,180C 272.167,179.667 272.833,179.333 273.5,179C 272.377,177.956 271.044,177.29 269.5,177C 253.098,177.245 236.764,176.411 220.5,174.5C 219.402,173.603 219.402,172.77 220.5,172C 218.473,170.121 216.14,168.954 213.5,168.5C 213.5,167.5 213.5,166.5 213.5,165.5 Z"/></g>
<g><path style="opacity:1" fill="#0c0c0c" d="M 220.5,174.5 C 236.764,176.411 253.098,177.245 269.5,177C 271.044,177.29 272.377,177.956 273.5,179C 272.833,179.333 272.167,179.667 271.5,180C 273.027,181.368 274.527,181.868 276,181.5C 276.333,182.5 276.667,183.5 277,184.5C 277.333,184.167 277.667,183.833 278,183.5C 278.29,185.044 278.956,186.377 280,187.5C 280.333,187.167 280.667,186.833 281,186.5C 282.036,188.299 282.203,189.966 281.5,191.5C 282.953,192.825 282.619,193.658 280.5,194C 281.5,194.333 282.5,194.667 283.5,195C 283.07,195.92 282.736,196.753 282.5,197.5C 278.455,194.772 274.788,191.772 271.5,188.5C 270.051,186.143 268.051,184.309 265.5,183C 250.822,182.833 236.155,182.333 221.5,181.5C 223.423,180.692 225.423,180.192 227.5,180C 226.167,179.333 226.167,178.667 227.5,178C 225.443,177.695 223.443,177.695 221.5,178C 219.627,177.047 219.294,175.88 220.5,174.5 Z"/></g>
<g><path style="opacity:0.341" fill="#8f8f8f" d="M 212.5,177.5 C 214.552,178.053 214.885,179.053 213.5,180.5C 213.443,179.391 213.11,178.391 212.5,177.5 Z"/></g>
<g><path style="opacity:0.004" fill="#000000" d="M 175.5,182.5 C 176.833,183.167 176.833,183.167 175.5,182.5 Z"/></g>
<g><path style="opacity:0.659" fill="#777777" d="M 213.5,180.5 C 212.972,181.721 212.305,182.887 211.5,184C 210.563,184.692 209.897,184.525 209.5,183.5C 211.233,182.992 211.566,182.159 210.5,181C 211.448,180.517 212.448,180.351 213.5,180.5 Z"/></g>
<g><path style="opacity:0.004" fill="#a2a2a2" d="M 194.5,183.5 C 195.525,183.897 195.692,184.563 195,185.5C 194.536,184.906 194.369,184.239 194.5,183.5 Z"/></g>
<g><path style="opacity:0.01" fill="#9a9a9a" d="M 162.5,183.5 C 163.38,185.137 164.046,186.97 164.5,189C 164.43,189.765 164.097,190.265 163.5,190.5C 161.661,188.21 161.328,185.877 162.5,183.5 Z"/></g>
<g><path style="opacity:0.004" fill="#d0d0d0" d="M 266.5,185.5 C 267.5,185.833 268.167,186.5 268.5,187.5C 267.167,187.5 266.5,186.833 266.5,185.5 Z"/></g>
<g><path style="opacity:0.004" fill="#000000" d="M 284.5,187.5 C 284.897,186.475 285.563,186.308 286.5,187C 285.906,187.464 285.239,187.631 284.5,187.5 Z"/></g>
<g><path style="opacity:0.11" fill="#9f9f9f" d="M 342.5,185.5 C 342.179,187.048 341.179,187.715 339.5,187.5C 340.29,186.599 341.29,185.932 342.5,185.5 Z"/></g>
<g><path style="opacity:0.039" fill="#9c9c9c" d="M 354.5,185.5 C 355.815,186.895 355.481,187.895 353.5,188.5C 353.263,187.209 353.596,186.209 354.5,185.5 Z"/></g>
<g><path style="opacity:0.004" fill="#000000" d="M 287.5,188.5 C 288.946,187.387 290.613,187.22 292.5,188C 290.866,188.494 289.199,188.66 287.5,188.5 Z"/></g>
<g><path style="opacity:0.004" fill="#363636" d="M 293.5,188.5 C 296.976,187.357 300.642,187.19 304.5,188C 300.848,188.499 297.182,188.665 293.5,188.5 Z"/></g>
<g><path style="opacity:0.008" fill="#414141" d="M 305.5,188.5 C 309.981,187.352 314.648,187.185 319.5,188C 314.845,188.499 310.179,188.666 305.5,188.5 Z"/></g>
<g><path style="opacity:0.004" fill="#000000" d="M 322.5,187.5 C 323.833,188.167 323.833,188.167 322.5,187.5 Z"/></g>
<g><path style="opacity:0.004" fill="#000000" d="M 333.5,187.5 C 334.833,188.167 334.833,188.167 333.5,187.5 Z"/></g>
<g><path style="opacity:0.039" fill="#898989" d="M 353.5,189.5 C 354.28,191.83 353.613,193.83 351.5,195.5C 351.595,193.214 352.262,191.214 353.5,189.5 Z"/></g>
<g><path style="opacity:1" fill="#0d0d0d" d="M 355.5,179.5 C 355.483,181.565 355.15,183.565 354.5,185.5C 353.596,186.209 353.263,187.209 353.5,188.5C 353.5,188.833 353.5,189.167 353.5,189.5C 352.262,191.214 351.595,193.214 351.5,195.5C 351.065,198.157 350.065,200.491 348.5,202.5C 347.624,202.631 346.957,202.298 346.5,201.5C 347.59,200.391 347.59,199.391 346.5,198.5C 344.566,198.901 343.066,199.901 342,201.5C 341.692,200.692 341.192,200.025 340.5,199.5C 339.269,200.651 339.269,201.817 340.5,203C 339.619,203.708 338.953,204.542 338.5,205.5C 337.609,206.11 336.609,206.443 335.5,206.5C 334.957,206.44 334.624,206.107 334.5,205.5C 335.63,204.378 336.297,203.044 336.5,201.5C 319.992,200.305 303.492,200.305 287,201.5C 280.314,199.981 275.147,196.314 271.5,190.5C 271.5,189.833 271.5,189.167 271.5,188.5C 274.788,191.772 278.455,194.772 282.5,197.5C 282.736,196.753 283.07,195.92 283.5,195C 282.5,194.667 281.5,194.333 280.5,194C 282.619,193.658 282.953,192.825 281.5,191.5C 283.199,191.34 284.866,191.506 286.5,192C 284.314,192.604 284.148,193.77 286,195.5C 286.772,194.151 287.939,193.318 289.5,193C 288.833,192.667 288.167,192.333 287.5,192C 292.667,191.833 297.833,191.667 303,191.5C 316.48,192.839 329.98,193.339 343.5,193C 341.833,192.667 340.167,192.333 338.5,192C 340.058,191.79 341.391,191.29 342.5,190.5C 342.672,189.508 342.338,188.842 341.5,188.5C 340.508,188.672 339.842,188.338 339.5,187.5C 341.179,187.715 342.179,187.048 342.5,185.5C 342.5,185.167 342.5,184.833 342.5,184.5C 343.222,184.082 343.722,183.416 344,182.5C 345.914,185.577 347.081,188.911 347.5,192.5C 346.448,192.351 345.448,192.517 344.5,193C 346.447,193.991 348.447,194.325 350.5,194C 350.043,193.586 349.709,193.086 349.5,192.5C 351.207,187.418 352.54,182.252 353.5,177C 352.304,176.346 352.304,175.846 353.5,175.5C 354.172,176.949 354.839,178.282 355.5,179.5 Z"/></g>
<g><path style="opacity:0.122" fill="#383838" d="M 341.5,188.5 C 342.338,188.842 342.672,189.508 342.5,190.5C 323.659,190.83 304.993,190.497 286.5,189.5C 305.008,189.83 323.341,189.497 341.5,188.5 Z"/></g>
<g><path style="opacity:0.004" fill="#000000" d="M 283.5,201.5 C 284.833,202.167 284.833,202.167 283.5,201.5 Z"/></g>
<g><path style="opacity:0.756" fill="#2b2b2b" d="M 336.5,201.5 C 336.297,203.044 335.63,204.378 334.5,205.5C 334.624,206.107 334.957,206.44 335.5,206.5C 334.272,208.01 334.272,209.51 335.5,211C 330.602,212.21 326.769,215.043 324,219.5C 321.91,218.209 320.576,218.876 320,221.5C 319.583,220.244 318.75,219.577 317.5,219.5C 320.932,217.248 324.266,214.748 327.5,212C 330.399,208.335 333.399,204.835 336.5,201.5 Z"/></g>
<g><path style="opacity:0.114" fill="#9a9a9a" d="M 273.5,214.5 C 269.663,214.069 265.997,213.402 262.5,212.5C 263.399,211.528 264.566,210.862 266,210.5C 268.74,211.452 271.24,212.786 273.5,214.5 Z"/></g>
<g><path style="opacity:1" fill="#0b0b0b" d="M 178.5,202.5 C 180.245,203.759 181.912,204.925 183.5,206C 180.818,208.33 181.151,208.83 184.5,207.5C 187.18,210.602 190.013,213.602 193,216.5C 194.073,215.72 195.24,215.887 196.5,217C 196.167,217.333 195.833,217.667 195.5,218C 198.133,218.423 200.299,219.59 202,221.5C 206.24,220.919 210.24,221.919 214,224.5C 214.725,223.941 215.558,223.608 216.5,223.5C 220.441,224.799 224.107,226.466 227.5,228.5C 224.91,229.051 224.244,230.384 225.5,232.5C 225.192,233.308 224.692,233.975 224,234.5C 221.373,230.847 218.04,229.847 214,231.5C 212.077,230.684 210.077,230.017 208,229.5C 206.711,227.915 205.211,226.581 203.5,225.5C 202.353,225.818 201.519,226.484 201,227.5C 195.355,224.132 189.522,221.465 183.5,219.5C 182.5,219.167 181.833,218.5 181.5,217.5C 181.196,216.85 180.863,216.183 180.5,215.5C 181.811,214.742 182.311,213.742 182,212.5C 180.644,213.38 179.144,213.714 177.5,213.5C 176.647,210.078 175.314,206.411 173.5,202.5C 173.667,202.167 173.833,201.833 174,201.5C 174.75,202.126 175.584,202.626 176.5,203C 175.304,203.654 175.304,204.154 176.5,204.5C 177.182,203.757 177.849,203.091 178.5,202.5 Z"/></g>
<g><path style="opacity:0.067" fill="#a5a5a5" d="M 253.5,220.5 C 253.938,220.435 254.272,220.601 254.5,221C 253.934,221.995 253.267,222.828 252.5,223.5C 252.263,222.209 252.596,221.209 253.5,220.5 Z"/></g>
<g><path style="opacity:1" fill="#0e0e0e" d="M 338.5,205.5 C 341.097,205.721 341.097,206.221 338.5,207C 339.167,207.333 339.833,207.667 340.5,208C 338.438,209.532 337.104,211.532 336.5,214C 337.167,214.333 337.833,214.667 338.5,215C 334.651,218.846 330.484,222.346 326,225.5C 325.085,224.672 324.419,223.672 324,222.5C 323,224.5 322,226.5 321,228.5C 320.131,225.606 318.298,224.439 315.5,225C 317.709,225.957 317.543,227.124 315,228.5C 314.667,227.833 314.333,227.167 314,226.5C 310.925,228.771 307.425,229.937 303.5,230C 295.167,230.333 286.833,230.667 278.5,231C 278.833,231.333 279.167,231.667 279.5,232C 276.94,233.773 274.607,235.773 272.5,238C 273.056,238.383 273.389,238.883 273.5,239.5C 266.819,242.066 260.652,241.066 255,236.5C 253.991,234.975 253.491,233.308 253.5,231.5C 253.795,229.265 253.461,227.265 252.5,225.5C 252.5,224.833 252.5,224.167 252.5,223.5C 253.267,222.828 253.934,221.995 254.5,221C 254.272,220.601 253.938,220.435 253.5,220.5C 255.874,217.126 258.874,214.459 262.5,212.5C 265.997,213.402 269.663,214.069 273.5,214.5C 275.017,214.511 276.184,215.177 277,216.5C 277.333,216.167 277.667,215.833 278,215.5C 278.847,217.854 279.68,220.188 280.5,222.5C 288.833,223.833 297.167,223.833 305.5,222.5C 309.596,221.809 313.596,220.809 317.5,219.5C 318.75,219.577 319.583,220.244 320,221.5C 320.576,218.876 321.91,218.209 324,219.5C 326.769,215.043 330.602,212.21 335.5,211C 334.272,209.51 334.272,208.01 335.5,206.5C 336.609,206.443 337.609,206.11 338.5,205.5 Z M 269.5,224.5 C 269.833,225.167 270.167,225.833 270.5,226.5C 269.833,226.5 269.167,226.5 268.5,226.5C 268.328,225.508 268.662,224.842 269.5,224.5 Z M 267.5,225.5 C 267.5,226.167 267.833,226.5 268.5,226.5C 268.372,228.09 267.705,229.423 266.5,230.5C 266.704,229.471 266.204,228.471 265,227.5C 264.617,228.056 264.117,228.389 263.5,228.5C 263.351,227.448 263.517,226.448 264,225.5C 264.986,226.171 266.153,226.171 267.5,225.5 Z"/></g>
<g><path style="opacity:0.004" fill="#000000" d="M 285.5,220.5 C 286.833,221.167 286.833,221.167 285.5,220.5 Z"/></g>
<g><path style="opacity:0.366" fill="#686868" d="M 305.5,222.5 C 297.167,223.833 288.833,223.833 280.5,222.5C 281.222,222.082 281.722,221.416 282,220.5C 289.558,222.447 297.391,223.114 305.5,222.5 Z"/></g>
<g><path style="opacity:0.169" fill="#adadad" d="M 267.5,223.5 C 268.492,223.328 269.158,223.662 269.5,224.5C 268.662,224.842 268.328,225.508 268.5,226.5C 267.833,226.5 267.5,226.167 267.5,225.5C 267.5,224.833 267.5,224.167 267.5,223.5 Z"/></g>
<g><path style="opacity:0.74" fill="#161616" d="M 348.5,202.5 C 341.731,218.272 330.065,228.272 313.5,232.5C 312.209,232.263 311.209,232.596 310.5,233.5C 309.5,233.5 308.5,233.5 307.5,233.5C 297.985,233.173 288.652,233.506 279.5,234.5C 278.109,236.89 276.109,238.557 273.5,239.5C 273.389,238.883 273.056,238.383 272.5,238C 274.607,235.773 276.94,233.773 279.5,232C 279.167,231.667 278.833,231.333 278.5,231C 286.833,230.667 295.167,230.333 303.5,230C 307.425,229.937 310.925,228.771 314,226.5C 314.333,227.167 314.667,227.833 315,228.5C 317.543,227.124 317.709,225.957 315.5,225C 318.298,224.439 320.131,225.606 321,228.5C 322,226.5 323,224.5 324,222.5C 324.419,223.672 325.085,224.672 326,225.5C 330.484,222.346 334.651,218.846 338.5,215C 337.833,214.667 337.167,214.333 336.5,214C 337.104,211.532 338.438,209.532 340.5,208C 339.833,207.667 339.167,207.333 338.5,207C 341.097,206.221 341.097,205.721 338.5,205.5C 338.953,204.542 339.619,203.708 340.5,203C 339.269,201.817 339.269,200.651 340.5,199.5C 341.192,200.025 341.692,200.692 342,201.5C 343.066,199.901 344.566,198.901 346.5,198.5C 347.59,199.391 347.59,200.391 346.5,201.5C 346.957,202.298 347.624,202.631 348.5,202.5 Z"/></g>
<g><path style="opacity:0.286" fill="#9a9a9a" d="M 252.5,225.5 C 253.461,227.265 253.795,229.265 253.5,231.5C 252.711,231.217 252.044,230.717 251.5,230C 252.38,228.644 252.714,227.144 252.5,225.5 Z"/></g>
<g><path style="opacity:0.294" fill="#545454" d="M 268.5,226.5 C 269.167,226.5 269.833,226.5 270.5,226.5C 270.313,229.026 268.98,230.693 266.5,231.5C 264.825,231.132 263.825,230.132 263.5,228.5C 264.117,228.389 264.617,228.056 265,227.5C 266.204,228.471 266.704,229.471 266.5,230.5C 267.705,229.423 268.372,228.09 268.5,226.5 Z"/></g>
<g><path style="opacity:0.049" fill="#9d9d9d" d="M 310.5,233.5 C 311.209,232.596 312.209,232.263 313.5,232.5C 312.895,234.481 311.895,234.815 310.5,233.5 Z"/></g>
<g><path style="opacity:0.999" fill="#181818" d="M 183.5,219.5 C 189.522,221.465 195.355,224.132 201,227.5C 201.519,226.484 202.353,225.818 203.5,225.5C 205.211,226.581 206.711,227.915 208,229.5C 210.077,230.017 212.077,230.684 214,231.5C 218.04,229.847 221.373,230.847 224,234.5C 224.692,233.975 225.192,233.308 225.5,232.5C 224.244,230.384 224.91,229.051 227.5,228.5C 229.435,229.15 231.435,229.483 233.5,229.5C 238.645,233.782 242.312,239.115 244.5,245.5C 243.85,247.447 242.683,249.113 241,250.5C 239.667,248.5 238,246.833 236,245.5C 234.961,246.244 234.461,247.244 234.5,248.5C 232.31,245.312 229.976,242.145 227.5,239C 216.85,235.336 206.183,231.669 195.5,228C 190.906,225.882 186.906,223.048 183.5,219.5 Z"/></g>
<g><path style="opacity:0.038" fill="#cfcfcf" d="M 279.5,234.5 C 288.652,233.506 297.985,233.173 307.5,233.5C 302.767,234.19 297.934,234.856 293,235.5C 288.443,234.688 283.943,234.355 279.5,234.5 Z"/></g>
<g><path style="opacity:1" fill="#101010" d="M 244.5,245.5 C 247.221,249.675 248.554,254.341 248.5,259.5C 248.5,263.5 248.5,267.5 248.5,271.5C 248.471,274.656 246.804,276.322 243.5,276.5C 241.64,275.74 239.973,274.74 238.5,273.5C 238.167,272.167 237.833,272.167 237.5,273.5C 236.957,273.44 236.624,273.107 236.5,272.5C 238.457,269.432 238.957,266.099 238,262.5C 237.142,257.735 235.976,253.069 234.5,248.5C 234.461,247.244 234.961,246.244 236,245.5C 238,246.833 239.667,248.5 241,250.5C 242.683,249.113 243.85,247.447 244.5,245.5 Z"/></g>
<g><path style="opacity:0.004" fill="#000000" d="M 249.5,256.5 C 250.833,257.167 250.833,257.167 249.5,256.5 Z"/></g>
<g><path style="opacity:0.246" fill="#404040" d="M 248.5,259.5 C 249.314,261.631 249.814,263.964 250,266.5C 250.333,264.833 250.667,263.167 251,261.5C 251.667,264.167 251.667,266.833 251,269.5C 250.667,269.167 250.333,268.833 250,268.5C 249.768,269.737 249.268,270.737 248.5,271.5C 248.5,267.5 248.5,263.5 248.5,259.5 Z"/></g>
<g><path style="opacity:0.004" fill="#000000" d="M 237.5,273.5 C 237.833,273.5 238.167,273.5 238.5,273.5C 238.167,276.167 237.833,276.167 237.5,273.5 Z"/></g>
<g><path style="opacity:0.004" fill="#000000" d="M 114.5,303.5 C 115.833,304.167 115.833,304.167 114.5,303.5 Z"/></g>
<g><path style="opacity:0.004" fill="#000000" d="M 172.5,304.5 C 173.946,303.387 175.613,303.22 177.5,304C 175.866,304.494 174.199,304.66 172.5,304.5 Z"/></g>
<g><path style="opacity:0.004" fill="#000000" d="M 222.5,304.5 C 223.251,303.427 224.251,303.26 225.5,304C 224.552,304.483 223.552,304.649 222.5,304.5 Z"/></g>
<g><path style="opacity:0.004" fill="#fefffe" d="M 99.5,305.5 C 98.8333,304.167 98.8333,304.167 99.5,305.5 Z"/></g>
<g><path style="opacity:0.214" fill="#797979" d="M 111.5,304.5 C 109.052,305.473 106.385,305.806 103.5,305.5C 103.918,304.778 104.584,304.278 105.5,304C 105.167,303.667 104.833,303.333 104.5,303C 105.667,302.833 106.833,302.667 108,302.5C 109.681,302.608 110.848,303.275 111.5,304.5 Z"/></g>
<g><path style="opacity:0.004" fill="#a4a4a4" d="M 170.5,305.5 C 169.5,305.5 168.5,305.5 167.5,305.5C 168.204,303.656 169.537,303.156 171.5,304C 170.944,304.383 170.611,304.883 170.5,305.5 Z"/></g>
<g><path style="opacity:0.004" fill="#c8c8c8" d="M 304.5,305.5 C 302.833,305.5 301.167,305.5 299.5,305.5C 299.97,304.307 300.97,303.64 302.5,303.5C 304.976,303.233 305.643,303.899 304.5,305.5 Z"/></g>
<g><path style="opacity:0.004" fill="#d2d2d2" d="M 321.5,305.5 C 320.833,305.5 320.167,305.5 319.5,305.5C 320.167,302.833 320.833,302.833 321.5,305.5 Z"/></g>
<g><path style="opacity:0.118" fill="#696969" d="M 369.5,305.5 C 366.833,305.5 364.167,305.5 361.5,305.5C 362.469,304.691 363.302,303.691 364,302.5C 365.649,303.953 367.482,304.953 369.5,305.5 Z"/></g>
<g><path style="opacity:0.542" fill="#606060" d="M 167.5,305.5 C 168.5,305.5 169.5,305.5 170.5,305.5C 173.833,305.5 177.167,305.5 180.5,305.5C 180.727,307.933 179.727,309.599 177.5,310.5C 177.511,308.983 178.177,307.816 179.5,307C 177.333,306.833 175.167,306.667 173,306.5C 170.39,306.533 168.223,307.2 166.5,308.5C 165.833,308.5 165.167,308.5 164.5,308.5C 163.466,306.183 164.466,305.183 167.5,305.5 Z"/></g>
<g><path style="opacity:0.494" fill="#656565" d="M 195.5,305.5 C 194.791,306.404 193.791,306.737 192.5,306.5C 190.5,306.5 188.5,306.5 186.5,306.5C 186.806,309.385 186.473,312.052 185.5,314.5C 185.5,311.5 185.5,308.5 185.5,305.5C 186.552,305.649 187.552,305.483 188.5,305C 187.112,304.111 187.278,303.611 189,303.5C 190.722,303.611 190.888,304.111 189.5,305C 191.473,305.495 193.473,305.662 195.5,305.5 Z"/></g>
<g><path style="opacity:0.48" fill="#575757" d="M 230.5,305.5 C 227.713,306.477 224.713,306.81 221.5,306.5C 221.737,307.791 221.404,308.791 220.5,309.5C 219.829,308.153 219.829,306.986 220.5,306C 223.817,305.502 227.15,305.335 230.5,305.5 Z"/></g>
<g><path style="opacity:0.368" fill="#4d4d4d" d="M 319.5,305.5 C 320.167,305.5 320.833,305.5 321.5,305.5C 322.5,305.5 323.5,305.5 324.5,305.5C 316.35,306.493 308.017,306.826 299.5,306.5C 299.5,306.167 299.5,305.833 299.5,305.5C 301.167,305.5 302.833,305.5 304.5,305.5C 306.199,305.66 307.866,305.494 309.5,305C 306.063,304.351 305.896,303.851 309,303.5C 310.124,304.484 311.624,305.151 313.5,305.5C 314.5,305.333 315.5,305.167 316.5,305C 315.112,304.111 315.278,303.611 317,303.5C 317.355,304.509 318.188,305.176 319.5,305.5 Z"/></g>
<g><path style="opacity:0.004" fill="#000000" d="M 312.5,303.5 C 313.833,304.167 313.833,304.167 312.5,303.5 Z"/></g>
<g><path style="opacity:0.005" fill="#111111" d="M 392.5,305.5 C 393.622,307.288 393.789,309.288 393,311.5C 392.505,309.527 392.338,307.527 392.5,305.5 Z"/></g>
<g><path style="opacity:0.481" fill="#545454" d="M 396.5,303.5 C 401.588,304.782 406.921,305.449 412.5,305.5C 417.5,305.333 422.5,305.167 427.5,305C 424.879,304.094 425.046,303.594 428,303.5C 429.792,303.481 430.292,303.814 429.5,304.5C 418.755,306.442 407.755,307.109 396.5,306.5C 396.5,305.5 396.5,304.5 396.5,303.5 Z"/></g>
<g><path style="opacity:0.004" fill="#000000" d="M 405.5,304.5 C 407.288,303.378 409.288,303.211 411.5,304C 409.527,304.495 407.527,304.662 405.5,304.5 Z"/></g>
<g><path style="opacity:0.004" fill="#000000" d="M 401.5,304.5 C 402.251,303.427 403.251,303.26 404.5,304C 403.552,304.483 402.552,304.649 401.5,304.5 Z"/></g>
<g><path style="opacity:0.004" fill="#000000" d="M 398.5,303.5 C 399.833,304.167 399.833,304.167 398.5,303.5 Z"/></g>
<g><path style="opacity:0.821" fill="#181818" d="M 396.5,303.5 C 396.5,304.5 396.5,305.5 396.5,306.5C 407.755,307.109 418.755,306.442 429.5,304.5C 430.263,305.268 431.263,305.768 432.5,306C 433.059,306.725 433.392,307.558 433.5,308.5C 433.249,310.708 433.249,312.875 433.5,315C 432.5,315.833 431.5,316.667 430.5,317.5C 422.943,318.182 415.443,318.849 408,319.5C 406.982,318.294 406.482,318.627 406.5,320.5C 406.737,323.063 407.237,323.063 408,320.5C 408.273,322.329 409.107,323.829 410.5,325C 409.833,325.333 409.167,325.667 408.5,326C 414.916,325.989 420.916,326.156 426.5,326.5C 427.423,330.064 427.756,333.731 427.5,337.5C 423.629,337.185 419.962,337.518 416.5,338.5C 413.214,337.793 409.881,337.46 406.5,337.5C 406.335,341.182 406.501,344.848 407,348.5C 414.217,348.183 421.883,347.85 430,347.5C 431.122,350.897 431.956,354.397 432.5,358C 419.993,359.479 407.326,359.979 394.5,359.5C 394.526,340.791 394.526,322.291 394.5,304C 395.094,303.536 395.761,303.369 396.5,303.5 Z"/></g>
<g><path style="opacity:0.755" fill="#181818" d="M 230.5,305.5 C 231.675,305.281 232.675,305.614 233.5,306.5C 232.172,323.696 232.172,340.863 233.5,358C 228.041,360.141 222.708,359.808 217.5,357C 217.833,356.667 218.167,356.333 218.5,356C 216.121,353.401 214.121,350.567 212.5,347.5C 212.573,345.973 211.906,344.973 210.5,344.5C 207.025,340.896 204.025,336.896 201.5,332.5C 202.833,332.5 204.167,332.5 205.5,332.5C 206.051,335.267 207.384,337.6 209.5,339.5C 212.515,337.12 213.182,337.953 211.5,342C 215.578,347.324 219.245,352.324 222.5,357C 225.5,357.667 228.5,357.667 231.5,357C 230.754,345.895 230.087,334.728 229.5,323.5C 230.543,319.141 230.543,314.808 229.5,310.5C 228.28,309.289 227.113,309.289 226,310.5C 225.309,308.109 224.309,308.109 223,310.5C 222.833,312.167 222.667,313.833 222.5,315.5C 223.032,322.641 223.032,330.307 222.5,338.5C 220.856,338.714 219.356,338.38 218,337.5C 217.495,335.482 216.995,333.482 216.5,331.5C 217.974,332.436 218.974,333.77 219.5,335.5C 219.56,336.043 219.893,336.376 220.5,336.5C 221.806,333.02 221.806,329.687 220.5,326.5C 220.5,320.833 220.5,315.167 220.5,309.5C 221.404,308.791 221.737,307.791 221.5,306.5C 224.713,306.81 227.713,306.477 230.5,305.5 Z"/></g>
<g><path style="opacity:0.004" fill="#000000" d="M 257.5,306.5 C 258.833,307.167 258.833,307.167 257.5,306.5 Z"/></g>
<g><path style="opacity:0.004" fill="#000000" d="M 351.5,306.5 C 352.833,307.167 352.833,307.167 351.5,306.5 Z"/></g>
<g><path style="opacity:0.004" fill="#000000" d="M 351.5,307.5 C 351.5,307.833 351.5,308.167 351.5,308.5C 350.83,308.019 350.83,307.685 351.5,307.5 Z"/></g>
<g><path style="opacity:0.063" fill="#838383" d="M 133.5,311.5 C 131.468,310.952 130.468,309.619 130.5,307.5C 130.81,306.262 131.31,306.262 132,307.5C 132.791,308.745 133.291,310.078 133.5,311.5 Z"/></g>
<g><path style="opacity:0.999" fill="#0b0b0b" d="M 259.5,307.5 C 263.637,307.146 267.637,307.646 271.5,309C 270.692,309.308 270.025,309.808 269.5,310.5C 269.846,311.696 270.346,311.696 271,310.5C 271.564,314.127 273.064,317.293 275.5,320C 275.167,320.333 274.833,320.667 274.5,321C 275.669,323.007 276.335,325.173 276.5,327.5C 273.677,324.315 270.677,323.981 267.5,326.5C 266.833,326.5 266.5,326.167 266.5,325.5C 267.874,323.483 267.707,321.483 266,319.5C 263.608,322.979 261.775,326.812 260.5,331C 260.167,331.167 259.833,331.333 259.5,331.5C 258.833,330.5 258.167,329.5 257.5,328.5C 256.109,329.645 254.776,329.645 253.5,328.5C 255.928,323.787 257.262,318.787 257.5,313.5C 257.253,311.142 257.919,309.142 259.5,307.5 Z"/></g>
<g><path style="opacity:0.785" fill="#2a2a2a" d="M 282.5,333.5 C 282.833,335.5 283.167,337.5 283.5,339.5C 282.069,338.918 280.736,338.085 279.5,337C 280.044,333.458 279.044,330.292 276.5,327.5C 276.335,325.173 275.669,323.007 274.5,321C 274.833,320.667 275.167,320.333 275.5,320C 273.064,317.293 271.564,314.127 271,310.5C 270.346,311.696 269.846,311.696 269.5,310.5C 270.025,309.808 270.692,309.308 271.5,309C 267.637,307.646 263.637,307.146 259.5,307.5C 259.577,306.25 260.244,305.417 261.5,305C 260.112,304.111 260.278,303.611 262,303.5C 265.811,304.917 269.644,306.084 273.5,307C 272.366,308.016 272.699,308.683 274.5,309C 274.043,309.414 273.709,309.914 273.5,310.5C 274.284,312.572 275.617,314.739 277.5,317C 276.366,318.016 276.699,318.683 278.5,319C 278.043,319.414 277.709,319.914 277.5,320.5C 278.999,325.011 280.665,329.344 282.5,333.5 Z"/></g>
<g><path style="opacity:1" fill="#1b1b1b" d="M 156.5,323.5 C 157.338,323.158 157.672,322.492 157.5,321.5C 158.338,321.158 158.672,320.492 158.5,319.5C 159.338,319.158 159.672,318.492 159.5,317.5C 161.557,315.427 162.391,313.094 162,310.5C 163.308,311.151 164.141,310.485 164.5,308.5C 165.167,308.5 165.833,308.5 166.5,308.5C 165.044,316.632 161.377,323.632 155.5,329.5C 154.059,328.135 152.726,326.635 151.5,325C 151.833,324.667 152.167,324.333 152.5,324C 149.836,321.331 148.002,318.164 147,314.5C 145.719,314.381 144.552,314.881 143.5,316C 147.5,316.667 147.5,317.333 143.5,318C 142.941,318.725 142.608,319.558 142.5,320.5C 144.522,323.524 145.522,326.857 145.5,330.5C 140.753,324.681 136.753,318.348 133.5,311.5C 133.291,310.078 132.791,308.745 132,307.5C 131.31,306.262 130.81,306.262 130.5,307.5C 129.957,307.44 129.624,307.107 129.5,306.5C 133.947,305.904 138.281,304.904 142.5,303.5C 143.167,303.833 143.833,304.167 144.5,304.5C 147.825,311.821 151.659,318.821 156,325.5C 156.464,324.906 156.631,324.239 156.5,323.5 Z"/></g>
<g><path style="opacity:1" fill="#121212" d="M 192.5,306.5 C 192.709,307.922 193.209,309.255 194,310.5C 195.333,310.5 196.667,310.5 198,310.5C 199.141,312.609 200.641,314.442 202.5,316C 202.043,316.414 201.709,316.914 201.5,317.5C 202.979,320.602 204.645,323.602 206.5,326.5C 206.749,325.418 206.915,324.085 207,322.5C 209.538,325.697 212.038,328.864 214.5,332C 211.845,330.74 210.012,331.574 209,334.5C 208.29,333.027 207.124,332.36 205.5,332.5C 204.167,332.5 202.833,332.5 201.5,332.5C 200.442,331.4 199.608,330.066 199,328.5C 198.5,338.828 198.334,349.161 198.5,359.5C 193.968,359.931 189.635,359.431 185.5,358C 186.552,343.385 186.552,328.885 185.5,314.5C 186.473,312.052 186.806,309.385 186.5,306.5C 188.5,306.5 190.5,306.5 192.5,306.5 Z"/></g>
<g><path style="opacity:0.999" fill="#131313" d="M 325.5,306.5 C 330.97,307.566 334.97,310.566 337.5,315.5C 337.263,316.791 337.596,317.791 338.5,318.5C 341.814,319.41 342.148,320.743 339.5,322.5C 338.532,324.607 338.198,326.941 338.5,329.5C 336.291,337.409 331.291,341.409 323.5,341.5C 322.833,341.5 322.167,341.5 321.5,341.5C 321.5,340.5 321.5,339.5 321.5,338.5C 323.765,339.779 325.765,339.279 327.5,337C 327.095,336.055 326.428,335.388 325.5,335C 326.94,331.357 328.274,327.357 329.5,323C 327.955,320.915 327.622,318.748 328.5,316.5C 326.922,315.702 325.256,315.202 323.5,315C 325.156,313.171 327.156,311.837 329.5,311C 328.619,310.292 327.953,309.458 327.5,308.5C 326.833,307.833 326.167,307.167 325.5,306.5 Z"/></g>
<g><path style="opacity:0.004" fill="#000000" d="M 349.5,310.5 C 348.833,309.167 348.833,309.167 349.5,310.5 Z"/></g>
<g><path style="opacity:1" fill="#0f0f0f" d="M 324.5,305.5 C 325.167,305.5 325.5,305.833 325.5,306.5C 326.167,307.167 326.833,307.833 327.5,308.5C 318.508,307.283 309.508,307.283 300.5,308.5C 301.484,323.785 301.817,339.118 301.5,354.5C 303.952,354.624 305.952,355.624 307.5,357.5C 308.167,357.333 308.833,357.167 309.5,357C 309.168,351.989 308.668,346.822 308,341.5C 307.219,342.729 306.719,344.062 306.5,345.5C 308.62,349.733 307.454,352.4 303,353.5C 302.5,339.504 302.333,325.504 302.5,311.5C 304.429,311.231 306.095,311.731 307.5,313C 307.304,317.725 307.304,322.558 307.5,327.5C 306.728,329.708 305.895,329.375 305,326.5C 304.5,329.838 306,331.505 309.5,331.5C 309.52,333.143 308.853,334.476 307.5,335.5C 307.833,335.833 308.167,336.167 308.5,336.5C 309.732,335.855 311.065,335.689 312.5,336C 313.126,335.25 313.626,334.416 314,333.5C 314.971,334.198 316.137,334.198 317.5,333.5C 320.063,333.737 320.063,334.237 317.5,335C 319.55,335.416 320.884,336.583 321.5,338.5C 321.5,339.5 321.5,340.5 321.5,341.5C 319.585,341.216 317.919,341.549 316.5,342.5C 316.5,343.167 316.167,343.5 315.5,343.5C 315.631,342.761 315.464,342.094 315,341.5C 314.302,342.691 313.469,343.691 312.5,344.5C 311.513,349.305 311.179,354.305 311.5,359.5C 307.5,359.5 303.5,359.5 299.5,359.5C 299.5,341.833 299.5,324.167 299.5,306.5C 308.017,306.826 316.35,306.493 324.5,305.5 Z"/></g>
<g><path style="opacity:0.998" fill="#161616" d="M 361.5,305.5 C 364.167,305.5 366.833,305.5 369.5,305.5C 375.289,305.811 380.122,308.144 384,312.5C 383.394,316.658 381.06,319.658 377,321.5C 370.975,315.551 364.808,315.217 358.5,320.5C 358.624,321.107 358.957,321.44 359.5,321.5C 360.254,323.505 361.421,324.172 363,323.5C 364.583,324.971 366.417,325.971 368.5,326.5C 369.551,327.222 370.218,328.222 370.5,329.5C 370.565,329.938 370.399,330.272 370,330.5C 365.22,328.578 360.887,326.578 357,324.5C 355.238,324.944 355.405,325.444 357.5,326C 356.692,326.308 356.025,326.808 355.5,327.5C 354.802,329.037 354.469,330.37 354.5,331.5C 352.629,331.141 351.129,330.141 350,328.5C 349.536,329.094 349.369,329.761 349.5,330.5C 348.21,329.942 347.377,328.942 347,327.5C 346.689,325.444 346.189,323.444 345.5,321.5C 346.833,320.5 346.833,319.5 345.5,318.5C 346.655,315.676 347.988,313.009 349.5,310.5C 350.5,310.167 351.167,309.5 351.5,308.5C 354.068,308.406 355.568,307.072 356,304.5C 357.699,305.406 359.533,305.739 361.5,305.5 Z"/></g>
<g><path style="opacity:0.998" fill="#0e0e0e" d="M 177.5,310.5 C 177.414,311.496 177.748,312.329 178.5,313C 177.069,313.465 175.903,314.299 175,315.5C 170.291,323.085 165.458,330.585 160.5,338C 161.833,345 161.833,352 160.5,359C 156.044,359.867 151.711,359.534 147.5,358C 148.766,355.617 149.432,352.95 149.5,350C 148.927,345.715 148.927,341.881 149.5,338.5C 147.703,336.045 146.37,333.378 145.5,330.5C 145.522,326.857 144.522,323.524 142.5,320.5C 142.608,319.558 142.941,318.725 143.5,318C 147.5,317.333 147.5,316.667 143.5,316C 144.552,314.881 145.719,314.381 147,314.5C 148.002,318.164 149.836,321.331 152.5,324C 152.167,324.333 151.833,324.667 151.5,325C 152.726,326.635 154.059,328.135 155.5,329.5C 161.377,323.632 165.044,316.632 166.5,308.5C 168.223,307.2 170.39,306.533 173,306.5C 175.167,306.667 177.333,306.833 179.5,307C 178.177,307.816 177.511,308.983 177.5,310.5 Z"/></g>
<g><path style="opacity:0.737" fill="#141414" d="M 327.5,308.5 C 327.953,309.458 328.619,310.292 329.5,311C 327.156,311.837 325.156,313.171 323.5,315C 325.256,315.202 326.922,315.702 328.5,316.5C 327.622,318.748 327.955,320.915 329.5,323C 328.274,327.357 326.94,331.357 325.5,335C 326.428,335.388 327.095,336.055 327.5,337C 325.765,339.279 323.765,339.779 321.5,338.5C 320.884,336.583 319.55,335.416 317.5,335C 320.063,334.237 320.063,333.737 317.5,333.5C 316.137,334.198 314.971,334.198 314,333.5C 313.626,334.416 313.126,335.25 312.5,336C 311.065,335.689 309.732,335.855 308.5,336.5C 308.167,336.167 307.833,335.833 307.5,335.5C 308.853,334.476 309.52,333.143 309.5,331.5C 306,331.505 304.5,329.838 305,326.5C 305.895,329.375 306.728,329.708 307.5,327.5C 307.304,322.558 307.304,317.725 307.5,313C 306.095,311.731 304.429,311.231 302.5,311.5C 302.333,325.504 302.5,339.504 303,353.5C 307.454,352.4 308.62,349.733 306.5,345.5C 306.719,344.062 307.219,342.729 308,341.5C 308.668,346.822 309.168,351.989 309.5,357C 308.833,357.167 308.167,357.333 307.5,357.5C 305.952,355.624 303.952,354.624 301.5,354.5C 301.817,339.118 301.484,323.785 300.5,308.5C 309.508,307.283 318.508,307.283 327.5,308.5 Z M 326.5,326.5 C 324.952,326.821 324.285,327.821 324.5,329.5C 320.404,331.28 316.071,331.946 311.5,331.5C 312.091,330.849 312.757,330.182 313.5,329.5C 313.376,328.893 313.043,328.56 312.5,328.5C 312.002,325.007 312.002,321.674 312.5,318.5C 316.225,318.405 319.891,318.238 323.5,318C 325.437,320.509 326.437,323.343 326.5,326.5 Z"/></g>
<g><path style="opacity:0.004" fill="#000000" d="M 159.5,317.5 C 158.833,316.167 158.833,316.167 159.5,317.5 Z"/></g>
<g><path style="opacity:0.145" fill="#b3b3b3" d="M 256.5,315.5 C 256.672,316.492 256.338,317.158 255.5,317.5C 253.335,316.938 253.668,316.271 256.5,315.5 Z"/></g>
<g><path style="opacity:0.008" fill="#909090" d="M 337.5,315.5 C 340.716,316.169 341.049,317.169 338.5,318.5C 337.596,317.791 337.263,316.791 337.5,315.5 Z"/></g>
<g><path style="opacity:1" fill="#0d0d0d" d="M 397.5,308.5 C 407.658,307.341 417.992,307.175 428.5,308C 428.5,310 428.5,312 428.5,314C 420.507,314.5 412.507,314.666 404.5,314.5C 404.334,318.846 404.501,323.179 405,327.5C 405.5,328 406,328.5 406.5,329C 413.167,329.333 419.833,329.667 426.5,330C 425.736,332.069 425.236,334.236 425,336.5C 418.5,336.333 412,336.167 405.5,336C 403.431,336.324 403.098,337.158 404.5,338.5C 403.167,339.5 401.833,340.5 400.5,341.5C 401.587,342.105 402.754,341.772 404,340.5C 404.256,343.557 404.756,346.557 405.5,349.5C 412.723,350.183 419.89,350.849 427,351.5C 427.333,351.167 427.667,350.833 428,350.5C 428.863,352.749 428.363,354.582 426.5,356C 427.167,356.333 427.833,356.667 428.5,357C 418.067,357.95 407.734,357.617 397.5,356C 396.839,340.882 396.672,325.382 397,309.5C 397.967,310.678 398.467,312.011 398.5,313.5C 400.973,312.424 403.639,311.758 406.5,311.5C 405.35,308.68 404.184,308.346 403,310.5C 401.599,308.808 399.766,308.141 397.5,308.5 Z"/></g>
<g><path style="opacity:0.006" fill="#000000" d="M 392.5,317.5 C 393.647,321.646 393.814,325.98 393,330.5C 392.501,326.179 392.334,321.846 392.5,317.5 Z"/></g>
<g><path style="opacity:0.008" fill="#000000" d="M 158.5,319.5 C 157.833,318.167 157.833,318.167 158.5,319.5 Z"/></g>
<g><path style="opacity:0.004" fill="#000000" d="M 86.5,320.5 C 87.8333,321.167 87.8333,321.167 86.5,320.5 Z"/></g>
<g><path style="opacity:0.012" fill="#545554" d="M 157.5,321.5 C 156.833,320.167 156.833,320.167 157.5,321.5 Z"/></g>
<g><path style="opacity:0.004" fill="#000000" d="M 233.5,320.5 C 234.525,320.897 234.692,321.563 234,322.5C 233.536,321.906 233.369,321.239 233.5,320.5 Z"/></g>
<g><path style="opacity:0.008" fill="#000000" d="M 359.5,320.5 C 360.833,321.167 360.833,321.167 359.5,320.5 Z"/></g>
<g><path style="opacity:0.008" fill="#7e7e7e" d="M 100.5,320.5 C 103.57,322.602 106.57,324.602 109.5,326.5C 104.937,326.667 101.937,324.667 100.5,320.5 Z"/></g>
<g><path style="opacity:0.004" fill="#000000" d="M 156.5,323.5 C 155.833,322.167 155.833,322.167 156.5,323.5 Z"/></g>
<g><path style="opacity:0.106" fill="#7b7b7b" d="M 88.5,324.5 C 89.8333,325.5 89.8333,326.5 88.5,327.5C 87.1667,326.5 87.1667,325.5 88.5,324.5 Z"/></g>
<g><path style="opacity:1" fill="#0d0d0d" d="M 276.5,327.5 C 279.044,330.292 280.044,333.458 279.5,337C 280.736,338.085 282.069,338.918 283.5,339.5C 284.687,341.072 285.687,342.739 286.5,344.5C 287.267,348.149 288.6,351.482 290.5,354.5C 290.421,355.93 290.754,357.264 291.5,358.5C 286.562,360.012 281.896,359.679 277.5,357.5C 277.405,355.214 276.738,353.214 275.5,351.5C 275.5,350.833 275.5,350.167 275.5,349.5C 272.742,348.182 269.576,347.515 266,347.5C 262.833,347.667 259.667,347.833 256.5,348C 255.748,348.671 255.414,349.504 255.5,350.5C 255.77,357.682 252.437,360.682 245.5,359.5C 243.83,358.129 243.164,356.629 243.5,355C 245.659,348.676 248.159,342.176 251,335.5C 252.147,336.458 253.147,336.125 254,334.5C 254.805,336.901 255.638,336.734 256.5,334C 254.74,333.035 254.406,331.868 255.5,330.5C 256.524,331.853 257.857,332.52 259.5,332.5C 259.216,334.415 259.549,336.081 260.5,337.5C 263.85,337.665 267.183,337.498 270.5,337C 269.956,336.283 269.289,335.783 268.5,335.5C 268.918,334.778 269.584,334.278 270.5,334C 269.009,331.692 268.009,329.192 267.5,326.5C 270.677,323.981 273.677,324.315 276.5,327.5 Z"/></g>
<g><path style="opacity:0.378" fill="#939393" d="M 339.5,322.5 C 339.884,324.929 340.551,327.263 341.5,329.5C 340.5,329.5 339.5,329.5 338.5,329.5C 338.198,326.941 338.532,324.607 339.5,322.5 Z"/></g>
<g><path style="opacity:0.999" fill="#141414" d="M 111.5,304.5 C 112.5,304.5 113.5,304.5 114.5,304.5C 118.035,306.008 121.369,308.008 124.5,310.5C 126.124,311.869 126.624,313.536 126,315.5C 123.721,317.289 121.721,319.289 120,321.5C 113.721,315.213 107.221,314.879 100.5,320.5C 101.937,324.667 104.937,326.667 109.5,326.5C 124.64,328.175 130.307,336.175 126.5,350.5C 125.607,345.236 124.44,345.236 123,350.5C 121.176,349.251 121.343,348.085 123.5,347C 121.873,347.43 120.373,347.596 119,347.5C 119.617,345.905 119.284,344.572 118,343.5C 117.617,344.056 117.117,344.389 116.5,344.5C 115.833,343.833 115.167,343.167 114.5,342.5C 113.167,341.5 111.833,340.5 110.5,339.5C 110.158,338.662 109.492,338.328 108.5,338.5C 107.883,338.611 107.383,338.944 107,339.5C 104.346,336.942 101.346,336.275 98,337.5C 94.3842,334.475 91.2175,331.141 88.5,327.5C 89.8333,326.5 89.8333,325.5 88.5,324.5C 88.7076,322.08 88.3742,319.747 87.5,317.5C 89.0915,315.226 90.5915,312.892 92,310.5C 94.4795,308.686 96.9795,307.019 99.5,305.5C 100.833,305.5 102.167,305.5 103.5,305.5C 106.385,305.806 109.052,305.473 111.5,304.5 Z"/></g>
<g><path style="opacity:0.149" fill="#9f9f9f" d="M 252.5,325.5 C 252.88,327.698 252.213,329.365 250.5,330.5C 250.402,328.447 251.069,326.78 252.5,325.5 Z"/></g>
<g><path style="opacity:0.004" fill="#000000" d="M 168.5,327.5 C 169.833,328.167 169.833,328.167 168.5,327.5 Z"/></g>
<g><path style="opacity:0.082" fill="#9d9d9d" d="M 326.5,326.5 C 326.573,328.027 325.906,329.027 324.5,329.5C 324.285,327.821 324.952,326.821 326.5,326.5 Z"/></g>
<g><path style="opacity:0.059" fill="#7d7d7d" d="M 426.5,326.5 C 428.884,327.425 429.884,329.258 429.5,332C 429.607,334.221 428.94,336.054 427.5,337.5C 427.756,333.731 427.423,330.064 426.5,326.5 Z"/></g>
<g><path style="opacity:0.809" fill="#1a1a1a" d="M 257.5,313.5 C 257.262,318.787 255.928,323.787 253.5,328.5C 254.776,329.645 256.109,329.645 257.5,328.5C 258.167,329.5 258.833,330.5 259.5,331.5C 259.833,331.333 260.167,331.167 260.5,331C 261.775,326.812 263.608,322.979 266,319.5C 267.707,321.483 267.874,323.483 266.5,325.5C 266.631,324.761 266.464,324.094 266,323.5C 264.485,327.192 262.985,330.859 261.5,334.5C 260.596,335.209 260.263,336.209 260.5,337.5C 259.549,336.081 259.216,334.415 259.5,332.5C 257.857,332.52 256.524,331.853 255.5,330.5C 254.406,331.868 254.74,333.035 256.5,334C 255.638,336.734 254.805,336.901 254,334.5C 253.147,336.125 252.147,336.458 251,335.5C 248.159,342.176 245.659,348.676 243.5,355C 243.164,356.629 243.83,358.129 245.5,359.5C 243.833,359.5 242.167,359.5 240.5,359.5C 240.714,357.856 240.38,356.356 239.5,355C 240.094,354.536 240.761,354.369 241.5,354.5C 242.833,353.5 242.833,352.5 241.5,351.5C 241.328,350.508 241.662,349.842 242.5,349.5C 242.56,350.043 242.893,350.376 243.5,350.5C 244.429,349.311 244.762,347.978 244.5,346.5C 244.389,345.883 244.056,345.383 243.5,345C 244.416,344.722 245.082,344.222 245.5,343.5C 247.213,342.365 247.88,340.698 247.5,338.5C 248.171,337.153 248.171,335.986 247.5,335C 248.883,333.729 249.883,332.229 250.5,330.5C 252.213,329.365 252.88,327.698 252.5,325.5C 252.897,322.554 253.897,319.887 255.5,317.5C 256.338,317.158 256.672,316.492 256.5,315.5C 256.328,314.508 256.662,313.842 257.5,313.5 Z"/></g>
<g><path style="opacity:0.024" fill="#a3a3a3" d="M 312.5,328.5 C 313.043,328.56 313.376,328.893 313.5,329.5C 312.757,330.182 312.091,330.849 311.5,331.5C 310.378,329.712 310.211,327.712 311,325.5C 311.232,326.737 311.732,327.737 312.5,328.5 Z"/></g>
<g><path style="opacity:1" fill="#0e0e0e" d="M 370.5,329.5 C 377.538,330.393 382.205,334.893 384.5,343C 384.145,349.418 380.812,354.084 374.5,357C 375.056,357.383 375.389,357.883 375.5,358.5C 366.738,361.164 358.404,360.664 350.5,357C 348.478,354.978 346.478,352.978 344.5,351C 345.591,347.746 347.591,345.246 350.5,343.5C 352.216,343.629 353.883,343.962 355.5,344.5C 360.058,348.908 365.392,350.241 371.5,348.5C 372.833,348.5 374.167,348.5 375.5,348.5C 376.776,342.884 374.776,339.051 369.5,337C 367.444,336.689 365.444,336.189 363.5,335.5C 362.914,335.709 362.414,336.043 362,336.5C 359.334,335.048 356.834,333.382 354.5,331.5C 354.469,330.37 354.802,329.037 355.5,327.5C 356.025,326.808 356.692,326.308 357.5,326C 355.405,325.444 355.238,324.944 357,324.5C 360.887,326.578 365.22,328.578 370,330.5C 370.399,330.272 370.565,329.938 370.5,329.5 Z"/></g>
<g><path style="opacity:0.008" fill="#a8a8a8" d="M 282.5,333.5 C 282.369,332.761 282.536,332.094 283,331.5C 283.692,332.437 283.525,333.103 282.5,333.5 Z"/></g>
<g><path style="opacity:0.614" fill="#2f2f2f" d="M 368.5,326.5 C 380.043,328.567 386.71,334.734 388.5,345C 386.288,347.921 384.455,351.088 383,354.5C 380.815,356.54 378.315,357.874 375.5,358.5C 375.389,357.883 375.056,357.383 374.5,357C 380.812,354.084 384.145,349.418 384.5,343C 382.205,334.893 377.538,330.393 370.5,329.5C 370.218,328.222 369.551,327.222 368.5,326.5 Z"/></g>
<g><path style="opacity:1" fill="#0c0c0c" d="M 195.5,305.5 C 197.017,305.511 198.184,306.177 199,307.5C 201.597,311.705 204.431,315.705 207.5,319.5C 207.5,320.833 208.167,321.5 209.5,321.5C 211.833,324.833 214.167,328.167 216.5,331.5C 216.995,333.482 217.495,335.482 218,337.5C 219.356,338.38 220.856,338.714 222.5,338.5C 223.032,330.307 223.032,322.641 222.5,315.5C 222.667,313.833 222.833,312.167 223,310.5C 224.309,308.109 225.309,308.109 226,310.5C 227.113,309.289 228.28,309.289 229.5,310.5C 230.543,314.808 230.543,319.141 229.5,323.5C 230.087,334.728 230.754,345.895 231.5,357C 228.5,357.667 225.5,357.667 222.5,357C 219.245,352.324 215.578,347.324 211.5,342C 213.182,337.953 212.515,337.12 209.5,339.5C 207.384,337.6 206.051,335.267 205.5,332.5C 207.124,332.36 208.29,333.027 209,334.5C 210.012,331.574 211.845,330.74 214.5,332C 212.038,328.864 209.538,325.697 207,322.5C 206.915,324.085 206.749,325.418 206.5,326.5C 204.645,323.602 202.979,320.602 201.5,317.5C 201.709,316.914 202.043,316.414 202.5,316C 200.641,314.442 199.141,312.609 198,310.5C 196.667,310.5 195.333,310.5 194,310.5C 193.209,309.255 192.709,307.922 192.5,306.5C 193.791,306.737 194.791,306.404 195.5,305.5 Z"/></g>
<g><path style="opacity:0.476" fill="#7a7a7a" d="M 220.5,326.5 C 221.806,329.687 221.806,333.02 220.5,336.5C 219.893,336.376 219.56,336.043 219.5,335.5C 220.477,332.713 220.81,329.713 220.5,326.5 Z"/></g>
<g><path style="opacity:0.008" fill="#939393" d="M 207.5,319.5 C 208.473,319.987 209.473,320.487 210.5,321C 210.272,321.399 209.938,321.565 209.5,321.5C 208.167,321.5 207.5,320.833 207.5,319.5 Z"/></g>
<g><path style="opacity:0.825" fill="#2a2a2a" d="M 354.5,331.5 C 356.834,333.382 359.334,335.048 362,336.5C 362.414,336.043 362.914,335.709 363.5,335.5C 365.444,336.189 367.444,336.689 369.5,337C 374.776,339.051 376.776,342.884 375.5,348.5C 374.167,348.5 372.833,348.5 371.5,348.5C 374.206,345.593 374.04,342.927 371,340.5C 365.871,338.79 360.371,336.957 354.5,335C 352.292,333.953 350.626,332.453 349.5,330.5C 349.369,329.761 349.536,329.094 350,328.5C 351.129,330.141 352.629,331.141 354.5,331.5 Z"/></g>
<g><path style="opacity:0.004" fill="#000000" d="M 392.5,335.5 C 393.833,336.167 393.833,336.167 392.5,335.5 Z"/></g>
<g><path style="opacity:0.012" fill="#b0b0b0" d="M 261.5,334.5 C 262.152,335.725 263.319,336.392 265,336.5C 266.385,336.486 267.551,336.152 268.5,335.5C 269.289,335.783 269.956,336.283 270.5,337C 267.183,337.498 263.85,337.665 260.5,337.5C 260.263,336.209 260.596,335.209 261.5,334.5 Z"/></g>
<g><path style="opacity:0.004" fill="#000000" d="M 355.5,336.5 C 356.833,337.167 356.833,337.167 355.5,336.5 Z"/></g>
<g><path style="opacity:0.004" fill="#000000" d="M 146.5,337.5 C 147.833,338.167 147.833,338.167 146.5,337.5 Z"/></g>
<g><path style="opacity:0.004" fill="#fefffe" d="M 162.5,337.5 C 163.833,338.167 163.833,338.167 162.5,337.5 Z"/></g>
<g><path style="opacity:0.004" fill="#fefffe" d="M 284.5,337.5 C 285.833,338.167 285.833,338.167 284.5,337.5 Z"/></g>
<g><path style="opacity:0.016" fill="#747474" d="M 416.5,338.5 C 419.962,337.518 423.629,337.185 427.5,337.5C 424.238,339.192 420.571,339.525 416.5,338.5 Z"/></g>
<g><path style="opacity:0.004" fill="#000000" d="M 407.5,338.5 C 408.833,339.167 408.833,339.167 407.5,338.5 Z"/></g>
<g><path style="opacity:0.004" fill="#d4d4d4" d="M 108.5,338.5 C 109.492,338.328 110.158,338.662 110.5,339.5C 109.033,342.258 108.367,341.925 108.5,338.5 Z"/></g>
<g><path style="opacity:0.004" fill="#4e4e4e" d="M 392.5,338.5 C 393.525,338.897 393.692,339.563 393,340.5C 392.536,339.906 392.369,339.239 392.5,338.5 Z"/></g>
<g><path style="opacity:0.325" fill="#828282" d="M 247.5,338.5 C 247.88,340.698 247.213,342.365 245.5,343.5C 245.793,342.357 245.793,341.023 245.5,339.5C 245.957,338.702 246.624,338.369 247.5,338.5 Z"/></g>
<g><path style="opacity:0.055" fill="#7f7f7f" d="M 316.5,342.5 C 317.919,341.549 319.585,341.216 321.5,341.5C 322.167,341.5 322.833,341.5 323.5,341.5C 321.406,343.375 319.072,343.708 316.5,342.5 Z"/></g>
<g><path style="opacity:0.004" fill="#000000" d="M 407.5,341.5 C 408.833,342.167 408.833,342.167 407.5,341.5 Z"/></g>
<g><path style="opacity:0.51" fill="#787878" d="M 355.5,344.5 C 353.883,343.962 352.216,343.629 350.5,343.5C 352.457,340.941 354.123,341.274 355.5,344.5 Z"/></g>
<g><path style="opacity:0.004" fill="#fefffe" d="M 129.5,343.5 C 130.833,344.167 130.833,344.167 129.5,343.5 Z"/></g>
<g><path style="opacity:0.004" fill="#a2a2a2" d="M 286.5,344.5 C 286.369,343.761 286.536,343.094 287,342.5C 287.692,343.437 287.525,344.103 286.5,344.5 Z"/></g>
<g><path style="opacity:0.004" fill="#d9d9d9" d="M 315.5,343.5 C 314.791,344.404 313.791,344.737 312.5,344.5C 313.469,343.691 314.302,342.691 315,341.5C 315.464,342.094 315.631,342.761 315.5,343.5 Z"/></g>
<g><path style="opacity:0.004" fill="#000000" d="M 407.5,343.5 C 408.833,344.167 408.833,344.167 407.5,343.5 Z"/></g>
<g><path style="opacity:0.006" fill="#171717" d="M 114.5,342.5 C 114.657,343.873 114.49,345.207 114,346.5C 113.235,344.934 113.402,343.601 114.5,342.5 Z"/></g>
<g><path style="opacity:0.082" fill="#898989" d="M 210.5,344.5 C 211.906,344.973 212.573,345.973 212.5,347.5C 211.094,347.027 210.427,346.027 210.5,344.5 Z"/></g>
<g><path style="opacity:0.004" fill="#000000" d="M 408.5,345.5 C 409.833,346.167 409.833,346.167 408.5,345.5 Z"/></g>
<g><path style="opacity:0.004" fill="#000000" d="M 128.5,347.5 C 129.833,348.167 129.833,348.167 128.5,347.5 Z"/></g>
<g><path style="opacity:0.09" fill="#ababab" d="M 275.5,349.5 C 275.167,349.5 274.833,349.5 274.5,349.5C 270.167,348.167 265.833,348.167 261.5,349.5C 259.621,350.341 257.621,350.675 255.5,350.5C 255.414,349.504 255.748,348.671 256.5,348C 259.667,347.833 262.833,347.667 266,347.5C 269.576,347.515 272.742,348.182 275.5,349.5 Z"/></g>
<g><path style="opacity:0.004" fill="#000000" d="M 288.5,347.5 C 289.833,348.167 289.833,348.167 288.5,347.5 Z"/></g>
<g><path style="opacity:0.008" fill="#343434" d="M 261.5,349.5 C 265.833,348.167 270.167,348.167 274.5,349.5C 270.374,349.843 266.041,349.843 261.5,349.5 Z"/></g>
<g><path style="opacity:0.384" fill="#9a9a9a" d="M 244.5,346.5 C 244.762,347.978 244.429,349.311 243.5,350.5C 242.893,350.376 242.56,350.043 242.5,349.5C 243.167,348.5 243.833,347.5 244.5,346.5 Z"/></g>
<g><path style="opacity:0.005" fill="#151515" d="M 392.5,349.5 C 393.638,352.304 393.805,355.304 393,358.5C 392.502,355.518 392.335,352.518 392.5,349.5 Z"/></g>
<g><path style="opacity:0.004" fill="#000000" d="M 432.5,349.5 C 433.833,350.167 433.833,350.167 432.5,349.5 Z"/></g>
<g><path style="opacity:0.999" fill="#101010" d="M 116.5,344.5 C 117.117,344.389 117.617,344.056 118,343.5C 119.284,344.572 119.617,345.905 119,347.5C 120.373,347.596 121.873,347.43 123.5,347C 121.343,348.085 121.176,349.251 123,350.5C 124.44,345.236 125.607,345.236 126.5,350.5C 124.013,355.81 119.846,359.143 114,360.5C 107.93,360.808 101.764,360.142 95.5,358.5C 91.5904,356.263 88.2571,353.263 85.5,349.5C 88.4843,347.016 91.3176,344.35 94,341.5C 99.4517,348.235 106.285,350.401 114.5,348C 115.305,346.887 115.972,345.721 116.5,344.5 Z"/></g>
<g><path style="opacity:0.014" fill="#c2c2c2" d="M 241.5,351.5 C 242.833,352.5 242.833,353.5 241.5,354.5C 240.167,353.5 240.167,352.5 241.5,351.5 Z"/></g>
<g><path style="opacity:0.004" fill="#000000" d="M 275.5,351.5 C 274.833,352.167 274.833,352.167 275.5,351.5 Z"/></g>
<g><path style="opacity:0.004" fill="#000000" d="M 146.5,353.5 C 147.573,354.251 147.74,355.251 147,356.5C 146.517,355.552 146.351,354.552 146.5,353.5 Z"/></g>
<g><path style="opacity:0.004" fill="#000000" d="M 290.5,353.5 C 291.833,354.167 291.833,354.167 290.5,353.5 Z"/></g>
<g><path style="opacity:0.285" fill="#919191" d="M 299.5,305.5 C 299.5,305.833 299.5,306.167 299.5,306.5C 299.5,324.167 299.5,341.833 299.5,359.5C 298.5,359.5 297.5,359.5 296.5,359.5C 296.328,357.508 296.995,355.842 298.5,354.5C 297.246,351.024 296.579,347.358 296.5,343.5C 297.135,330.913 297.135,318.246 296.5,305.5C 297.5,305.5 298.5,305.5 299.5,305.5 Z"/></g>
<g><path style="opacity:0.016" fill="#000000" d="M 238.5,357.5 C 239.833,358.167 239.833,358.167 238.5,357.5 Z"/></g>
<g><path style="opacity:0.004" fill="#000000" d="M 277.5,357.5 C 276.833,358.167 276.833,358.167 277.5,357.5 Z"/></g>
<g><path style="opacity:0.004" fill="#000000" d="M 95.5,358.5 C 94.8333,359.167 94.8333,359.167 95.5,358.5 Z"/></g>
<g><path style="opacity:0.009" fill="#101010" d="M 149.5,361.5 C 152.64,360.359 155.973,360.192 159.5,361C 156.183,361.498 152.85,361.665 149.5,361.5 Z"/></g>
<g><path style="opacity:0.007" fill="#000000" d="M 186.5,361.5 C 188.966,360.366 191.633,360.199 194.5,361C 191.854,361.497 189.187,361.664 186.5,361.5 Z"/></g>
<g><path style="opacity:0.004" fill="#000000" d="M 195.5,360.5 C 196.833,361.167 196.833,361.167 195.5,360.5 Z"/></g>
<g><path style="opacity:0.007" fill="#000000" d="M 222.5,361.5 C 224.628,360.371 226.961,360.204 229.5,361C 227.19,361.497 224.857,361.663 222.5,361.5 Z"/></g>
<g><path style="opacity:0.01" fill="#070707" d="M 241.5,361.5 C 244.64,360.359 247.973,360.192 251.5,361C 248.183,361.498 244.85,361.665 241.5,361.5 Z"/></g>
<g><path style="opacity:0.017" fill="#0b0b0b" d="M 279.5,361.5 C 282.64,360.359 285.973,360.192 289.5,361C 286.183,361.498 282.85,361.665 279.5,361.5 Z"/></g>
<g><path style="opacity:0.012" fill="#1b1b1b" d="M 298.5,361.5 C 301.976,360.357 305.642,360.19 309.5,361C 305.848,361.499 302.182,361.665 298.5,361.5 Z"/></g>
<g><path style="opacity:0.008" fill="#000000" d="M 395.5,361.5 C 396.946,360.387 398.613,360.22 400.5,361C 398.866,361.494 397.199,361.66 395.5,361.5 Z"/></g>
<g><path style="opacity:0.006" fill="#000000" d="M 401.5,361.5 C 401.897,360.475 402.563,360.308 403.5,361C 402.906,361.464 402.239,361.631 401.5,361.5 Z"/></g>
<g><path style="opacity:0.009" fill="#000000" d="M 404.5,361.5 C 409.65,360.349 414.984,360.183 420.5,361C 415.177,361.499 409.844,361.666 404.5,361.5 Z"/></g>
<g><path style="opacity:0.007" fill="#000000" d="M 421.5,361.5 C 424.304,360.362 427.304,360.195 430.5,361C 427.518,361.498 424.518,361.665 421.5,361.5 Z"/></g>
<g><path style="opacity:0.004" fill="#000000" d="M 107.5,362.5 C 108.251,361.427 109.251,361.26 110.5,362C 109.552,362.483 108.552,362.649 107.5,362.5 Z"/></g>
<g><path style="opacity:0.009" fill="#000000" d="M 365.5,362.5 C 366.251,361.427 367.251,361.26 368.5,362C 367.552,362.483 366.552,362.649 365.5,362.5 Z"/></g>
<g><path style="opacity:0.004" fill="#000000" d="M 158.5,379.5 C 159.833,380.167 159.833,380.167 158.5,379.5 Z"/></g>
<g><path style="opacity:0.004" fill="#fefffe" d="M 143.5,380.5 C 144.833,381.167 144.833,381.167 143.5,380.5 Z"/></g>
<g><path style="opacity:0.151" fill="#777777" d="M 156.5,381.5 C 153.941,381.802 151.607,381.468 149.5,380.5C 151.124,380.64 152.29,379.973 153,378.5C 153.985,379.814 155.152,380.814 156.5,381.5 Z"/></g>
<g><path style="opacity:0.745" fill="#121212" d="M 189.5,407.5 C 193.97,408.486 198.637,408.819 203.5,408.5C 203.663,410.857 203.497,413.19 203,415.5C 201.482,415.057 200.315,415.724 199.5,417.5C 197.883,416.358 196.05,415.691 194,415.5C 189.806,415.639 185.639,415.639 181.5,415.5C 181.5,404.167 181.5,392.833 181.5,381.5C 184.212,381.263 186.712,381.263 189,381.5C 189.5,390.16 189.666,398.827 189.5,407.5 Z"/></g>
<g><path style="opacity:0.143" fill="#777777" d="M 412.5,381.5 C 410.167,381.5 407.833,381.5 405.5,381.5C 407.19,380.897 408.69,379.897 410,378.5C 410.698,379.691 411.531,380.691 412.5,381.5 Z"/></g>
<g><path style="opacity:0.924" fill="#262626" d="M 323.5,380.5 C 331.815,379.492 338.148,382.492 342.5,389.5C 339.157,388.941 336.157,387.608 333.5,385.5C 332.406,386.868 332.74,388.035 334.5,389C 334.167,389.333 333.833,389.667 333.5,390C 336.167,392.071 338.5,394.404 340.5,397C 339.837,398.518 338.837,399.685 337.5,400.5C 337.768,398.901 337.434,397.568 336.5,396.5C 335.2,393.568 333.2,391.234 330.5,389.5C 331.239,389.631 331.906,389.464 332.5,389C 331.62,387.644 331.286,386.144 331.5,384.5C 329.848,382.519 327.181,381.185 323.5,380.5 Z"/></g>
<g><path style="opacity:0.004" fill="#cbcbcb" d="M 102.5,385.5 C 102.715,387.179 102.048,388.179 100.5,388.5C 100.062,388.565 99.7284,388.399 99.5,388C 100.147,386.391 100.98,384.891 102,383.5C 102.464,384.094 102.631,384.761 102.5,385.5 Z"/></g>
<g><path style="opacity:1" fill="#171717" d="M 263.5,415.5 C 264.055,411.003 263.389,406.836 261.5,403C 263.407,398.482 264.074,393.648 263.5,388.5C 259.833,388.5 256.167,388.5 252.5,388.5C 250.672,386.061 250.672,383.894 252.5,382C 261.827,381.5 271.161,381.334 280.5,381.5C 280.663,383.857 280.497,386.19 280,388.5C 277.333,389.833 274.667,391.167 272,392.5C 271.667,392.167 271.333,391.833 271,391.5C 270.567,399.509 270.734,407.509 271.5,415.5C 268.833,415.5 266.167,415.5 263.5,415.5 Z"/></g>
<g><path style="opacity:0.004" fill="#2b2b2b" d="M 281.5,382.5 C 282.525,382.897 282.692,383.563 282,384.5C 281.536,383.906 281.369,383.239 281.5,382.5 Z"/></g>
<g><path style="opacity:0.01" fill="#787878" d="M 298.5,381.5 C 300.279,382.67 301.279,384.336 301.5,386.5C 300.275,387.152 299.608,388.319 299.5,390C 299.608,391.681 300.275,392.848 301.5,393.5C 301.5,393.833 301.5,394.167 301.5,394.5C 300.275,395.152 299.608,396.319 299.5,398C 299.608,399.681 300.275,400.848 301.5,401.5C 301.473,403.199 300.806,404.533 299.5,405.5C 299.517,407.565 299.85,409.565 300.5,411.5C 299.833,412.833 299.167,414.167 298.5,415.5C 298.5,404.167 298.5,392.833 298.5,381.5 Z"/></g>
<g><path style="opacity:0.765" fill="#171717" d="M 149.5,380.5 C 151.607,381.468 153.941,381.802 156.5,381.5C 165.334,383.516 170.167,389.183 171,398.5C 171.889,397.112 172.389,397.278 172.5,399C 170.335,402.823 168.168,406.656 166,410.5C 163.742,412.43 161.242,413.93 158.5,415C 157.874,415.75 157.374,416.584 157,417.5C 152.236,416.088 147.403,414.588 142.5,413C 140.235,411.242 138.568,409.075 137.5,406.5C 136.627,402.232 136.294,397.898 136.5,393.5C 137.879,386.294 142.213,381.96 149.5,380.5 Z M 158.5,405.5 C 148.384,409.163 143.884,405.497 145,394.5C 149.312,387.602 154.312,386.935 160,392.5C 162.244,397.273 161.744,401.607 158.5,405.5 Z"/></g>
<g><path style="opacity:0.004" fill="#c8c8c8" d="M 301.5,386.5 C 301.5,388.833 301.5,391.167 301.5,393.5C 300.275,392.848 299.608,391.681 299.5,390C 299.608,388.319 300.275,387.152 301.5,386.5 Z"/></g>
<g><path style="opacity:0.007" fill="#1e1e1e" d="M 232.5,380.5 C 233.654,386.987 233.821,393.654 233,400.5C 232.5,393.842 232.334,387.175 232.5,380.5 Z"/></g>
<g><path style="opacity:0.744" fill="#171717" d="M 323.5,380.5 C 327.181,381.185 329.848,382.519 331.5,384.5C 331.286,386.144 331.62,387.644 332.5,389C 331.906,389.464 331.239,389.631 330.5,389.5C 329.791,388.596 328.791,388.263 327.5,388.5C 322.647,389.017 319.647,391.683 318.5,396.5C 319.552,398.223 319.552,399.89 318.5,401.5C 320.716,407.074 325.049,408.741 331.5,406.5C 333.833,406.167 335.167,404.833 335.5,402.5C 336.167,401.833 336.833,401.167 337.5,400.5C 338.837,399.685 339.837,398.518 340.5,397C 338.5,394.404 336.167,392.071 333.5,390C 333.833,389.667 334.167,389.333 334.5,389C 332.74,388.035 332.406,386.868 333.5,385.5C 336.157,387.608 339.157,388.941 342.5,389.5C 343.117,391.229 344.117,392.729 345.5,394C 344.565,396.381 344.232,398.881 344.5,401.5C 343.596,402.209 343.263,403.209 343.5,404.5C 342.928,406.255 342.094,407.922 341,409.5C 337.918,412.186 334.918,414.853 332,417.5C 331.29,416.027 330.124,415.36 328.5,415.5C 328.541,419.243 327.874,419.41 326.5,416C 315.577,414.742 309.744,408.576 309,397.5C 308.346,398.696 307.846,398.696 307.5,397.5C 310.448,388.9 315.781,383.233 323.5,380.5 Z M 327.5,388.5 C 328.105,390.481 329.105,390.815 330.5,389.5C 333.2,391.234 335.2,393.568 336.5,396.5C 336.167,398.5 335.833,400.5 335.5,402.5C 333.833,403.5 332.5,404.833 331.5,406.5C 325.049,408.741 320.716,407.074 318.5,401.5C 319.552,399.89 319.552,398.223 318.5,396.5C 319.647,391.683 322.647,389.017 327.5,388.5 Z"/></g>
<g><path style="opacity:0.024" fill="#969696" d="M 420.5,385.5 C 421.715,386.779 421.382,387.779 419.5,388.5C 419.557,387.391 419.89,386.391 420.5,385.5 Z"/></g>
<g><path style="opacity:1" fill="#0c0c0c" d="M 298.5,381.5 C 298.5,392.833 298.5,404.167 298.5,415.5C 298.631,416.239 298.464,416.906 298,417.5C 296.211,415.771 294.044,415.104 291.5,415.5C 291.5,404.167 291.5,392.833 291.5,381.5C 293.669,380.918 296.002,380.918 298.5,381.5 Z"/></g>
<g><path style="opacity:0.039" fill="#a0a0a0" d="M 327.5,388.5 C 328.791,388.263 329.791,388.596 330.5,389.5C 329.105,390.815 328.105,390.481 327.5,388.5 Z"/></g>
<g><path style="opacity:0.004" fill="#000000" d="M 169.5,389.5 C 170.833,390.167 170.833,390.167 169.5,389.5 Z"/></g>
<g><path style="opacity:0.129" fill="#909090" d="M 291.5,381.5 C 291.5,392.833 291.5,404.167 291.5,415.5C 290.475,414.626 289.808,413.459 289.5,412C 290.687,402.461 290.687,393.128 289.5,384C 289.684,382.624 290.351,381.791 291.5,381.5 Z"/></g>
<g><path style="opacity:0.802" fill="#141414" d="M 111.5,388.5 C 110.167,388.5 109.5,389.167 109.5,390.5C 109.953,391.458 110.619,392.292 111.5,393C 115.581,394.471 119.581,396.138 123.5,398C 127.553,404.635 126.553,410.469 120.5,415.5C 115.07,415.839 109.736,415.339 104.5,414C 98.5607,411.441 98.2273,408.608 103.5,405.5C 105.194,405.554 106.86,405.554 108.5,405.5C 109.1,404.1 110.1,403.1 111.5,402.5C 110.791,401.596 109.791,401.263 108.5,401.5C 106.492,399.732 104.326,398.066 102,396.5C 101.367,393.521 100.867,390.854 100.5,388.5C 102.048,388.179 102.715,387.179 102.5,385.5C 108.907,379.498 115.907,378.998 123.5,384C 125.007,384.837 125.507,386.004 125,387.5C 123.108,390.037 121.108,391.703 119,392.5C 118.085,391.672 117.419,390.672 117,389.5C 116.549,391.929 115.715,392.096 114.5,390C 114.833,389.667 115.167,389.333 115.5,389C 114.207,388.51 112.873,388.343 111.5,388.5 Z M 111.5,402.5 C 112.791,402.263 113.791,402.596 114.5,403.5C 115.222,403.918 115.722,404.584 116,405.5C 116.451,403.071 117.285,402.904 118.5,405C 117.944,405.383 117.611,405.883 117.5,406.5C 115.236,407.219 112.903,407.552 110.5,407.5C 110.366,405.708 110.699,404.042 111.5,402.5 Z"/></g>
<g><path style="opacity:0.012" fill="#adadad" d="M 111.5,388.5 C 111.167,389.5 110.5,390.167 109.5,390.5C 109.5,389.167 110.167,388.5 111.5,388.5 Z"/></g>
<g><path style="opacity:0.004" fill="#fefffe" d="M 301.5,394.5 C 301.5,396.833 301.5,399.167 301.5,401.5C 300.275,400.848 299.608,399.681 299.5,398C 299.608,396.319 300.275,395.152 301.5,394.5 Z"/></g>
<g><path style="opacity:0.004" fill="#000000" d="M 307.5,394.5 C 308.833,395.167 308.833,395.167 307.5,394.5 Z"/></g>
<g><path style="opacity:0.004" fill="#000000" d="M 385.5,394.5 C 386.525,394.897 386.692,395.563 386,396.5C 385.536,395.906 385.369,395.239 385.5,394.5 Z"/></g>
<g><path style="opacity:0.365" fill="#919191" d="M 136.5,393.5 C 136.294,397.898 136.627,402.232 137.5,406.5C 136.325,406.719 135.325,406.386 134.5,405.5C 134.831,401.552 135.498,397.552 136.5,393.5 Z"/></g>
<g><path style="opacity:0.008" fill="#7d7d7d" d="M 252.5,388.5 C 256.167,388.5 259.833,388.5 263.5,388.5C 264.074,393.648 263.407,398.482 261.5,403C 263.389,406.836 264.055,411.003 263.5,415.5C 262.85,415.196 262.183,414.863 261.5,414.5C 260.502,406.528 260.169,398.528 260.5,390.5C 257.447,390.889 254.78,390.223 252.5,388.5 Z"/></g>
<g><path style="opacity:0.901" fill="#161717" d="M 405.5,381.5 C 407.833,381.5 410.167,381.5 412.5,381.5C 415.754,381.794 418.421,383.127 420.5,385.5C 419.89,386.391 419.557,387.391 419.5,388.5C 418.524,389.815 417.524,391.148 416.5,392.5C 414.264,391.836 412.264,390.669 410.5,389C 408.934,388.235 407.601,388.402 406.5,389.5C 403.93,390.484 403.93,391.651 406.5,393C 410.581,394.471 414.581,396.138 418.5,398C 422.607,402.169 423.107,406.669 420,411.5C 414.987,416.612 409.154,417.779 402.5,415C 394.18,412.248 393.513,408.415 400.5,403.5C 404.227,407.565 408.56,408.399 413.5,406C 412.5,405.667 411.5,405.333 410.5,405C 411.833,404.333 411.833,403.667 410.5,403C 403.949,402.078 399.283,398.745 396.5,393C 396.986,389.573 398.153,386.406 400,383.5C 401.584,382.139 403.418,381.472 405.5,381.5 Z"/></g>
<g><path style="opacity:0.008" fill="#7f807f" d="M 406.5,389.5 C 407.833,390.167 407.833,390.167 406.5,389.5 Z"/></g>
<g><path style="opacity:0.406" fill="#9e9e9e" d="M 336.5,396.5 C 337.434,397.568 337.768,398.901 337.5,400.5C 336.833,401.167 336.167,401.833 335.5,402.5C 335.833,400.5 336.167,398.5 336.5,396.5 Z"/></g>
<g><path style="opacity:0.996" fill="#101010" d="M 375.5,399.5 C 375.369,400.376 375.702,401.043 376.5,401.5C 377.497,394.866 377.83,388.2 377.5,381.5C 380.397,381.125 383.063,381.625 385.5,383C 384.513,393.752 384.18,404.585 384.5,415.5C 381.753,415.813 379.086,415.48 376.5,414.5C 372.667,409.5 368.833,404.5 365,399.5C 363.334,400.34 363.167,399.84 364.5,398C 364,397.5 363.5,397 363,396.5C 362.5,402.825 362.334,409.158 362.5,415.5C 360.167,416.833 357.833,416.833 355.5,415.5C 355.811,404.448 355.478,393.448 354.5,382.5C 357.106,381.348 359.773,381.182 362.5,382C 367.075,387.729 371.408,393.563 375.5,399.5 Z"/></g>
<g><path style="opacity:0.281" fill="#888888" d="M 377.5,381.5 C 377.83,388.2 377.497,394.866 376.5,401.5C 375.702,401.043 375.369,400.376 375.5,399.5C 375.598,395.785 375.598,391.951 375.5,388C 376.117,385.723 376.784,383.556 377.5,381.5 Z"/></g>
<g><path style="opacity:0.004" fill="#000000" d="M 365.5,383.5 C 366.833,384.167 366.833,384.167 365.5,383.5 Z"/></g>
<g><path style="opacity:0.008" fill="#000000" d="M 271.5,398.5 C 272.833,399.167 272.833,399.167 271.5,398.5 Z"/></g>
<g><path style="opacity:0.004" fill="#000000" d="M 104.5,400.5 C 105.833,401.167 105.833,401.167 104.5,400.5 Z"/></g>
<g><path style="opacity:0.004" fill="#000000" d="M 108.5,401.5 C 107.833,402.167 107.833,402.167 108.5,401.5 Z"/></g>
<g><path style="opacity:0.055" fill="#b3b3b3" d="M 344.5,401.5 C 346.838,402.625 346.505,403.625 343.5,404.5C 343.263,403.209 343.596,402.209 344.5,401.5 Z"/></g>
<g><path style="opacity:0.031" fill="#8c8c8c" d="M 108.5,405.5 C 106.86,405.554 105.194,405.554 103.5,405.5C 103.47,404.503 103.97,403.836 105,403.5C 106.303,403.978 107.469,404.645 108.5,405.5 Z"/></g>
<g><path style="opacity:0.004" fill="#000000" d="M 170.5,403.5 C 171.833,404.167 171.833,404.167 170.5,403.5 Z"/></g>
<g><path style="opacity:0.263" fill="#a8a8a8" d="M 335.5,402.5 C 335.167,404.833 333.833,406.167 331.5,406.5C 332.5,404.833 333.833,403.5 335.5,402.5 Z"/></g>
<g><path style="opacity:0.009" fill="#000000" d="M 363.5,403.5 C 364.613,404.946 364.78,406.613 364,408.5C 363.506,406.866 363.34,405.199 363.5,403.5 Z"/></g>
<g><path style="opacity:0.004" fill="#000000" d="M 385.5,403.5 C 386.833,404.167 386.833,404.167 385.5,403.5 Z"/></g>
<g><path style="opacity:0.004" fill="#000000" d="M 406.5,403.5 C 407.833,404.167 407.833,404.167 406.5,403.5 Z"/></g>
<g><path style="opacity:0.004" fill="#f7f7f7" d="M 299.5,405.5 C 300.693,405.97 301.36,406.97 301.5,408.5C 301.48,409.726 301.147,410.726 300.5,411.5C 299.85,409.565 299.517,407.565 299.5,405.5 Z"/></g>
<g><path style="opacity:0.055" fill="#a4a4a4" d="M 117.5,406.5 C 116.688,407.993 115.355,408.66 113.5,408.5C 112.274,408.48 111.274,408.147 110.5,407.5C 112.903,407.552 115.236,407.219 117.5,406.5 Z"/></g>
<g><path style="opacity:0.076" fill="#ababab" d="M 203.5,408.5 C 198.637,408.819 193.97,408.486 189.5,407.5C 190.496,407.586 191.329,407.252 192,406.5C 195.935,407.138 199.769,407.804 203.5,408.5 Z"/></g>
<g><path style="opacity:1" fill="#141414" d="M 220.5,381.5 C 220.175,388.687 220.509,395.687 221.5,402.5C 222.341,403.926 223.341,405.26 224.5,406.5C 224.791,407.649 225.624,408.316 227,408.5C 228.07,408.472 228.903,408.139 229.5,407.5C 231.451,406.718 232.951,405.384 234,403.5C 234.5,396.174 234.666,388.841 234.5,381.5C 237.212,381.263 239.712,381.263 242,381.5C 242.428,389.204 242.595,396.704 242.5,404C 241.475,406.071 240.642,408.238 240,410.5C 237.299,413.098 234.466,415.431 231.5,417.5C 227.692,415.85 223.692,414.683 219.5,414C 217.291,412.127 215.458,409.96 214,407.5C 213.817,399.588 213.317,391.754 212.5,384C 214.653,381.835 217.319,381.002 220.5,381.5 Z"/></g>
<g><path style="opacity:0.128" fill="#a8a8a8" d="M 224.5,406.5 C 226.216,406.629 227.883,406.962 229.5,407.5C 228.903,408.139 228.07,408.472 227,408.5C 225.624,408.316 224.791,407.649 224.5,406.5 Z"/></g>
<g><path style="opacity:0.311" fill="#6d6d6d" d="M 220.5,381.5 C 221.919,384.693 222.253,388.027 221.5,391.5C 221.818,392.647 222.484,393.481 223.5,394C 221.821,396.565 221.154,399.398 221.5,402.5C 220.509,395.687 220.175,388.687 220.5,381.5 Z"/></g>
<g><path style="opacity:0.005" fill="#191919" d="M 363.5,410.5 C 364.613,411.946 364.78,413.613 364,415.5C 363.506,413.866 363.34,412.199 363.5,410.5 Z"/></g>
<g><path style="opacity:0.008" fill="#000000" d="M 204.5,411.5 C 205.573,412.251 205.74,413.251 205,414.5C 204.517,413.552 204.351,412.552 204.5,411.5 Z"/></g>
<g><path style="opacity:0.004" fill="#000000" d="M 120.5,415.5 C 121.833,416.167 121.833,416.167 120.5,415.5 Z"/></g>
<g><path style="opacity:0.004" fill="#000000" d="M 190.5,416.5 C 191.833,417.167 191.833,417.167 190.5,416.5 Z"/></g>
<g><path style="opacity:0.004" fill="#000000" d="M 196.5,416.5 C 197.833,417.167 197.833,417.167 196.5,416.5 Z"/></g>
</svg>
